<?xml version="1.0" encoding="UTF-8" standalone="no"?>
<!DOCTYPE svg PUBLIC "-//W3C//DTD SVG 1.1//EN" "http://www.w3.org/Graphics/SVG/1.1/DTD/svg11.dtd">
<svg version="1.1" xmlns="http://www.w3.org/2000/svg" xmlns:xlink="http://www.w3.org/1999/xlink" preserveAspectRatio="xMidYMid meet" viewBox="0 0 640 640" width="640" height="640"><defs><path d="M440 110C445.52 110 450 114.48 450 120C450 188 450 382 450 450C450 455.52 445.52 460 440 460C392 460 258 460 210 460C204.48 460 200 455.52 200 450C200 382 200 188 200 120C200 114.48 204.48 110 210 110C258 110 392 110 440 110Z" id="bO0GNxvT9"></path><path d="M234.1 120.1C235.08 121.08 235.09 122.67 234.11 123.65C232.04 125.72 227.62 130.14 225.56 132.21C224.58 133.19 222.99 133.2 222 132.22C219.94 130.15 215.51 125.73 213.44 123.67C212.46 122.69 212.46 121.1 213.44 120.11C215.5 118.05 219.92 113.62 221.99 111.55C222.97 110.57 224.56 110.57 225.54 111.55C227.61 113.61 232.03 118.03 234.1 120.1Z" id="b8sUCLe4R"></path><path d="M246.67 132.64C247.74 133.71 247.74 135.44 246.67 136.51C244.64 138.55 240.48 142.72 238.44 144.75C237.37 145.82 235.64 145.83 234.57 144.76C232.53 142.72 228.36 138.56 226.33 136.53C225.26 135.46 225.26 133.73 226.32 132.66C228.36 130.62 232.52 126.45 234.55 124.41C235.62 123.34 237.35 123.34 238.43 124.41C240.46 126.44 244.63 130.6 246.67 132.64Z" id="a1TDObmDHl"></path><path d="M221.4 132.82C222.38 133.8 222.38 135.39 221.4 136.37C219.34 138.44 214.92 142.87 212.85 144.94C211.87 145.92 210.28 145.92 209.3 144.94C207.23 142.88 202.81 138.46 200.74 136.39C199.76 135.41 199.75 133.82 200.73 132.84C202.8 130.77 207.22 126.34 209.28 124.28C210.26 123.29 211.85 123.29 212.84 124.27C214.9 126.34 219.33 130.76 221.4 132.82Z" id="d3I4JPqVqw"></path><path d="M234.28 145.69C235.17 146.58 235.17 148.02 234.28 148.92C232.18 151.02 227.5 155.7 225.41 157.8C224.52 158.7 223.07 158.7 222.18 157.81C220.08 155.71 215.39 151.03 213.29 148.93C212.4 148.04 212.4 146.6 213.29 145.7C215.38 143.6 220.06 138.92 222.16 136.82C223.05 135.92 224.5 135.92 225.39 136.81C227.49 138.91 232.17 143.59 234.28 145.69Z" id="b3HXsZ5Ne5"></path><path d="M234.1 169.76C235.08 170.74 235.09 172.33 234.11 173.31C232.04 175.38 227.62 179.81 225.56 181.88C224.58 182.86 222.99 182.86 222 181.88C219.94 179.82 215.51 175.4 213.44 173.33C212.46 172.35 212.46 170.76 213.44 169.78C215.5 167.71 219.92 163.29 221.99 161.22C222.97 160.24 224.56 160.23 225.54 161.21C227.61 163.28 232.03 167.7 234.1 169.76Z" id="h6Y9Ntl3V"></path><path d="M246.67 182.3C247.74 183.37 247.74 185.11 246.67 186.18C244.64 188.22 240.48 192.38 238.44 194.42C237.37 195.49 235.64 195.49 234.57 194.42C232.53 192.39 228.36 188.23 226.33 186.2C225.26 185.13 225.26 183.39 226.32 182.32C228.36 180.29 232.52 176.12 234.55 174.08C235.62 173.01 237.35 173.01 238.43 174.08C240.46 176.11 244.63 180.27 246.67 182.3Z" id="aoiMpndp6"></path><path d="M221.4 182.49C222.38 183.47 222.38 185.06 221.4 186.04C219.34 188.11 214.92 192.54 212.85 194.6C211.87 195.59 210.28 195.59 209.3 194.61C207.23 192.54 202.81 188.12 200.74 186.06C199.76 185.08 199.75 183.49 200.73 182.51C202.8 180.44 207.22 176.01 209.28 173.94C210.26 172.96 211.85 172.96 212.84 173.94C214.9 176 219.33 180.42 221.4 182.49Z" id="a3z6x4lwb"></path><path d="M234.28 195.35C235.17 196.24 235.17 197.69 234.28 198.58C232.18 200.68 227.5 205.37 225.41 207.47C224.52 208.36 223.07 208.36 222.18 207.47C220.08 205.38 215.39 200.7 213.29 198.6C212.4 197.71 212.4 196.26 213.29 195.37C215.38 193.27 220.06 188.59 222.16 186.48C223.05 185.59 224.5 185.59 225.39 186.48C227.49 188.58 232.17 193.26 234.28 195.35Z" id="aR2faWddz"></path><path d="M234.1 219.76C235.08 220.74 235.09 222.33 234.11 223.31C232.04 225.38 227.62 229.81 225.56 231.88C224.58 232.86 222.99 232.86 222 231.88C219.94 229.82 215.51 225.4 213.44 223.33C212.46 222.35 212.46 220.76 213.44 219.78C215.5 217.71 219.92 213.29 221.99 211.22C222.97 210.24 224.56 210.23 225.54 211.21C227.61 213.28 232.03 217.7 234.1 219.76Z" id="a5ozceVRBe"></path><path d="M246.67 232.3C247.74 233.37 247.74 235.11 246.67 236.18C244.64 238.22 240.48 242.38 238.44 244.42C237.37 245.49 235.64 245.49 234.57 244.42C232.53 242.39 228.36 238.23 226.33 236.2C225.26 235.13 225.26 233.39 226.32 232.32C228.36 230.29 232.52 226.12 234.55 224.08C235.62 223.01 237.35 223.01 238.43 224.08C240.46 226.11 244.63 230.27 246.67 232.3Z" id="ajear5IyJ"></path><path d="M221.4 232.49C222.38 233.47 222.38 235.06 221.4 236.04C219.34 238.11 214.92 242.54 212.85 244.6C211.87 245.59 210.28 245.59 209.3 244.61C207.23 242.54 202.81 238.12 200.74 236.06C199.76 235.08 199.75 233.49 200.73 232.51C202.8 230.44 207.22 226.01 209.28 223.94C210.26 222.96 211.85 222.96 212.84 223.94C214.9 226 219.33 230.42 221.4 232.49Z" id="g7LZXc6DXg"></path><path d="M234.28 245.35C235.17 246.24 235.17 247.69 234.28 248.58C232.18 250.68 227.5 255.37 225.41 257.47C224.52 258.36 223.07 258.36 222.18 257.47C220.08 255.38 215.39 250.7 213.29 248.6C212.4 247.71 212.4 246.26 213.29 245.37C215.38 243.27 220.06 238.59 222.16 236.48C223.05 235.59 224.5 235.59 225.39 236.48C227.49 238.58 232.17 243.26 234.28 245.35Z" id="a1qR28D6QV"></path><path d="M284.1 119.76C285.08 120.74 285.09 122.33 284.11 123.31C282.04 125.38 277.62 129.81 275.56 131.88C274.58 132.86 272.99 132.86 272 131.88C269.94 129.82 265.51 125.4 263.44 123.33C262.46 122.35 262.46 120.76 263.44 119.78C265.5 117.71 269.92 113.29 271.99 111.22C272.97 110.24 274.56 110.23 275.54 111.21C277.61 113.28 282.03 117.7 284.1 119.76Z" id="bjpzVSmx2"></path><path d="M296.67 132.3C297.74 133.37 297.74 135.11 296.67 136.18C294.64 138.22 290.48 142.38 288.44 144.42C287.37 145.49 285.64 145.49 284.57 144.42C282.53 142.39 278.36 138.23 276.33 136.2C275.26 135.13 275.26 133.39 276.32 132.32C278.36 130.29 282.52 126.12 284.55 124.08C285.62 123.01 287.35 123.01 288.43 124.08C290.46 126.11 294.63 130.27 296.67 132.3Z" id="cDYAyUiS"></path><path d="M271.4 132.49C272.38 133.47 272.38 135.06 271.4 136.04C269.34 138.11 264.92 142.54 262.85 144.6C261.87 145.59 260.28 145.59 259.3 144.61C257.23 142.54 252.81 138.12 250.74 136.06C249.76 135.08 249.75 133.49 250.73 132.51C252.8 130.44 257.22 126.01 259.28 123.94C260.26 122.96 261.85 122.96 262.84 123.94C264.9 126 269.33 130.42 271.4 132.49Z" id="b1ytBEPM6Q"></path><path d="M284.28 145.35C285.17 146.24 285.17 147.69 284.28 148.58C282.18 150.68 277.5 155.37 275.41 157.47C274.52 158.36 273.07 158.36 272.18 157.47C270.08 155.38 265.39 150.7 263.29 148.6C262.4 147.71 262.4 146.26 263.29 145.37C265.38 143.27 270.06 138.59 272.16 136.48C273.05 135.59 274.5 135.59 275.39 136.48C277.49 138.58 282.17 143.26 284.28 145.35Z" id="d1R74ARCjY"></path><path d="M284.1 169.76C285.08 170.74 285.09 172.33 284.11 173.31C282.04 175.38 277.62 179.81 275.56 181.88C274.58 182.86 272.99 182.86 272 181.88C269.94 179.82 265.51 175.4 263.44 173.33C262.46 172.35 262.46 170.76 263.44 169.78C265.5 167.71 269.92 163.29 271.99 161.22C272.97 160.24 274.56 160.23 275.54 161.21C277.61 163.28 282.03 167.7 284.1 169.76Z" id="g1AooW2qlq"></path><path d="M296.67 182.3C297.74 183.37 297.74 185.11 296.67 186.18C294.64 188.22 290.48 192.38 288.44 194.42C287.37 195.49 285.64 195.49 284.57 194.42C282.53 192.39 278.36 188.23 276.33 186.2C275.26 185.13 275.26 183.39 276.32 182.32C278.36 180.29 282.52 176.12 284.55 174.08C285.62 173.01 287.35 173.01 288.43 174.08C290.46 176.11 294.63 180.27 296.67 182.3Z" id="cqy4VC5C5"></path><path d="M271.4 182.49C272.38 183.47 272.38 185.06 271.4 186.04C269.34 188.11 264.92 192.54 262.85 194.6C261.87 195.59 260.28 195.59 259.3 194.61C257.23 192.54 252.81 188.12 250.74 186.06C249.76 185.08 249.75 183.49 250.73 182.51C252.8 180.44 257.22 176.01 259.28 173.94C260.26 172.96 261.85 172.96 262.84 173.94C264.9 176 269.33 180.42 271.4 182.49Z" id="d30wjlpBNu"></path><path d="M284.28 195.35C285.17 196.24 285.17 197.69 284.28 198.58C282.18 200.68 277.5 205.37 275.41 207.47C274.52 208.36 273.07 208.36 272.18 207.47C270.08 205.38 265.39 200.7 263.29 198.6C262.4 197.71 262.4 196.26 263.29 195.37C265.38 193.27 270.06 188.59 272.16 186.48C273.05 185.59 274.5 185.59 275.39 186.48C277.49 188.58 282.17 193.26 284.28 195.35Z" id="hZB1CtVk"></path><path d="M284.1 219.76C285.08 220.74 285.09 222.33 284.11 223.31C282.04 225.38 277.62 229.81 275.56 231.88C274.58 232.86 272.99 232.86 272 231.88C269.94 229.82 265.51 225.4 263.44 223.33C262.46 222.35 262.46 220.76 263.44 219.78C265.5 217.71 269.92 213.29 271.99 211.22C272.97 210.24 274.56 210.23 275.54 211.21C277.61 213.28 282.03 217.7 284.1 219.76Z" id="a4JA52u2BQ"></path><path d="M296.67 232.3C297.74 233.37 297.74 235.11 296.67 236.18C294.64 238.22 290.48 242.38 288.44 244.42C287.37 245.49 285.64 245.49 284.57 244.42C282.53 242.39 278.36 238.23 276.33 236.2C275.26 235.13 275.26 233.39 276.32 232.32C278.36 230.29 282.52 226.12 284.55 224.08C285.62 223.01 287.35 223.01 288.43 224.08C290.46 226.11 294.63 230.27 296.67 232.3Z" id="biufoUZQd"></path><path d="M271.4 232.49C272.38 233.47 272.38 235.06 271.4 236.04C269.34 238.11 264.92 242.54 262.85 244.6C261.87 245.59 260.28 245.59 259.3 244.61C257.23 242.54 252.81 238.12 250.74 236.06C249.76 235.08 249.75 233.49 250.73 232.51C252.8 230.44 257.22 226.01 259.28 223.94C260.26 222.96 261.85 222.96 262.84 223.94C264.9 226 269.33 230.42 271.4 232.49Z" id="a8YMUd5GXk"></path><path d="M284.28 245.35C285.17 246.24 285.17 247.69 284.28 248.58C282.18 250.68 277.5 255.37 275.41 257.47C274.52 258.36 273.07 258.36 272.18 257.47C270.08 255.38 265.39 250.7 263.29 248.6C262.4 247.71 262.4 246.26 263.29 245.37C265.38 243.27 270.06 238.59 272.16 236.48C273.05 235.59 274.5 235.59 275.39 236.48C277.49 238.58 282.17 243.26 284.28 245.35Z" id="bkzd5i7Fe"></path><path d="M234.1 270.1C235.08 271.08 235.09 272.67 234.11 273.65C232.04 275.72 227.62 280.14 225.56 282.21C224.58 283.19 222.99 283.2 222 282.22C219.94 280.15 215.51 275.73 213.44 273.67C212.46 272.69 212.46 271.1 213.44 270.11C215.5 268.05 219.92 263.62 221.99 261.55C222.97 260.57 224.56 260.57 225.54 261.55C227.61 263.61 232.03 268.03 234.1 270.1Z" id="a29XrR8GOi"></path><path d="M246.67 282.64C247.74 283.71 247.74 285.44 246.67 286.51C244.64 288.55 240.48 292.72 238.44 294.75C237.37 295.82 235.64 295.83 234.57 294.76C232.53 292.72 228.36 288.56 226.33 286.53C225.26 285.46 225.26 283.73 226.32 282.66C228.36 280.62 232.52 276.45 234.55 274.41C235.62 273.34 237.35 273.34 238.43 274.41C240.46 276.44 244.63 280.6 246.67 282.64Z" id="b2wNJL0FL"></path><path d="M221.4 282.82C222.38 283.8 222.38 285.39 221.4 286.37C219.34 288.44 214.92 292.87 212.85 294.94C211.87 295.92 210.28 295.92 209.3 294.94C207.23 292.88 202.81 288.46 200.74 286.39C199.76 285.41 199.75 283.82 200.73 282.84C202.8 280.77 207.22 276.34 209.28 274.28C210.26 273.29 211.85 273.29 212.84 274.27C214.9 276.34 219.33 280.76 221.4 282.82Z" id="bpiLtz6ME"></path><path d="M234.28 295.69C235.17 296.58 235.17 298.02 234.28 298.92C232.18 301.02 227.5 305.7 225.41 307.8C224.52 308.7 223.07 308.7 222.18 307.81C220.08 305.71 215.39 301.03 213.29 298.93C212.4 298.04 212.4 296.6 213.29 295.7C215.38 293.6 220.06 288.92 222.16 286.82C223.05 285.92 224.5 285.92 225.39 286.81C227.49 288.91 232.17 293.59 234.28 295.69Z" id="bDpn2yYK6"></path><path d="M284.1 270.1C285.08 271.08 285.09 272.67 284.11 273.65C282.04 275.72 277.62 280.14 275.56 282.21C274.58 283.19 272.99 283.2 272 282.22C269.94 280.15 265.51 275.73 263.44 273.67C262.46 272.69 262.46 271.1 263.44 270.11C265.5 268.05 269.92 263.62 271.99 261.55C272.97 260.57 274.56 260.57 275.54 261.55C277.61 263.61 282.03 268.03 284.1 270.1Z" id="etXDgzqJf"></path><path d="M296.67 282.64C297.74 283.71 297.74 285.44 296.67 286.51C294.64 288.55 290.48 292.72 288.44 294.75C287.37 295.82 285.64 295.83 284.57 294.76C282.53 292.72 278.36 288.56 276.33 286.53C275.26 285.46 275.26 283.73 276.32 282.66C278.36 280.62 282.52 276.45 284.55 274.41C285.62 273.34 287.35 273.34 288.43 274.41C290.46 276.44 294.63 280.6 296.67 282.64Z" id="b1vfD5pAmW"></path><path d="M271.4 282.82C272.38 283.8 272.38 285.39 271.4 286.37C269.34 288.44 264.92 292.87 262.85 294.94C261.87 295.92 260.28 295.92 259.3 294.94C257.23 292.88 252.81 288.46 250.74 286.39C249.76 285.41 249.75 283.82 250.73 282.84C252.8 280.77 257.22 276.34 259.28 274.28C260.26 273.29 261.85 273.29 262.84 274.27C264.9 276.34 269.33 280.76 271.4 282.82Z" id="b58okToPZW"></path><path d="M284.28 295.69C285.17 296.58 285.17 298.02 284.28 298.92C282.18 301.02 277.5 305.7 275.41 307.8C274.52 308.7 273.07 308.7 272.18 307.81C270.08 305.71 265.39 301.03 263.29 298.93C262.4 298.04 262.4 296.6 263.29 295.7C265.38 293.6 270.06 288.92 272.16 286.82C273.05 285.92 274.5 285.92 275.39 286.81C277.49 288.91 282.17 293.59 284.28 295.69Z" id="a3cpjEWgOJ"></path><path d="M234.1 320.43C235.08 321.41 235.09 323 234.11 323.98C232.04 326.05 227.62 330.48 225.56 332.55C224.58 333.53 222.99 333.53 222 332.55C219.94 330.48 215.51 326.06 213.44 324C212.46 323.02 212.46 321.43 213.44 320.45C215.5 318.38 219.92 313.95 221.99 311.88C222.97 310.9 224.56 310.9 225.54 311.88C227.61 313.95 232.03 318.36 234.1 320.43Z" id="b3YXN4yGKV"></path><path d="M246.67 332.97C247.74 334.04 247.74 335.78 246.67 336.85C244.64 338.88 240.48 343.05 238.44 345.09C237.37 346.16 235.64 346.16 234.57 345.09C232.53 343.06 228.36 338.9 226.33 336.86C225.26 335.8 225.26 334.06 226.32 332.99C228.36 330.95 232.52 326.78 234.55 324.75C235.62 323.68 237.35 323.68 238.43 324.74C240.46 326.78 244.63 330.94 246.67 332.97Z" id="b3wlKrvfVf"></path><path d="M221.4 333.15C222.38 334.14 222.38 335.73 221.4 336.71C219.34 338.78 214.92 343.2 212.85 345.27C211.87 346.25 210.28 346.25 209.3 345.27C207.23 343.21 202.81 338.79 200.74 336.73C199.76 335.75 199.75 334.16 200.73 333.17C202.8 331.11 207.22 326.68 209.28 324.61C210.26 323.63 211.85 323.63 212.84 324.61C214.9 326.67 219.33 331.09 221.4 333.15Z" id="esItk1XcR"></path><path d="M234.28 346.02C235.17 346.91 235.17 348.36 234.28 349.25C232.18 351.35 227.5 356.03 225.41 358.14C224.52 359.03 223.07 359.03 222.18 358.14C220.08 356.04 215.39 351.36 213.29 349.27C212.4 348.38 212.4 346.93 213.29 346.04C215.38 343.94 220.06 339.25 222.16 337.15C223.05 336.26 224.5 336.26 225.39 337.15C227.49 339.25 232.17 343.92 234.28 346.02Z" id="c4seEtUEb"></path><path d="M284.1 320.43C285.08 321.41 285.09 323 284.11 323.98C282.04 326.05 277.62 330.48 275.56 332.55C274.58 333.53 272.99 333.53 272 332.55C269.94 330.48 265.51 326.06 263.44 324C262.46 323.02 262.46 321.43 263.44 320.45C265.5 318.38 269.92 313.95 271.99 311.88C272.97 310.9 274.56 310.9 275.54 311.88C277.61 313.95 282.03 318.36 284.1 320.43Z" id="aDYrhBDxU"></path><path d="M296.67 332.97C297.74 334.04 297.74 335.78 296.67 336.85C294.64 338.88 290.48 343.05 288.44 345.09C287.37 346.16 285.64 346.16 284.57 345.09C282.53 343.06 278.36 338.9 276.33 336.86C275.26 335.8 275.26 334.06 276.32 332.99C278.36 330.95 282.52 326.78 284.55 324.75C285.62 323.68 287.35 323.68 288.43 324.74C290.46 326.78 294.63 330.94 296.67 332.97Z" id="gZW3IGqG3"></path><path d="M271.4 333.15C272.38 334.14 272.38 335.73 271.4 336.71C269.34 338.78 264.92 343.2 262.85 345.27C261.87 346.25 260.28 346.25 259.3 345.27C257.23 343.21 252.81 338.79 250.74 336.73C249.76 335.75 249.75 334.16 250.73 333.17C252.8 331.11 257.22 326.68 259.28 324.61C260.26 323.63 261.85 323.63 262.84 324.61C264.9 326.67 269.33 331.09 271.4 333.15Z" id="gch8velFiA"></path><path d="M284.28 346.02C285.17 346.91 285.17 348.36 284.28 349.25C282.18 351.35 277.5 356.03 275.41 358.14C274.52 359.03 273.07 359.03 272.18 358.14C270.08 356.04 265.39 351.36 263.29 349.27C262.4 348.38 262.4 346.93 263.29 346.04C265.38 343.94 270.06 339.25 272.16 337.15C273.05 336.26 274.5 336.26 275.39 337.15C277.49 339.25 282.17 343.92 284.28 346.02Z" id="blcXGbYbr"></path><path d="M234.1 370.76C235.08 371.74 235.09 373.33 234.11 374.31C232.04 376.38 227.62 380.81 225.56 382.88C224.58 383.86 222.99 383.86 222 382.88C219.94 380.82 215.51 376.4 213.44 374.33C212.46 373.35 212.46 371.76 213.44 370.78C215.5 368.71 219.92 364.29 221.99 362.22C222.97 361.24 224.56 361.23 225.54 362.21C227.61 364.28 232.03 368.7 234.1 370.76Z" id="d2Ynu96gYZ"></path><path d="M246.67 383.3C247.74 384.37 247.74 386.11 246.67 387.18C244.64 389.22 240.48 393.38 238.44 395.42C237.37 396.49 235.64 396.49 234.57 395.42C232.53 393.39 228.36 389.23 226.33 387.2C225.26 386.13 225.26 384.39 226.32 383.32C228.36 381.29 232.52 377.12 234.55 375.08C235.62 374.01 237.35 374.01 238.43 375.08C240.46 377.11 244.63 381.27 246.67 383.3Z" id="c7KySwRm3"></path><path d="M221.4 383.49C222.38 384.47 222.38 386.06 221.4 387.04C219.34 389.11 214.92 393.54 212.85 395.6C211.87 396.59 210.28 396.59 209.3 395.61C207.23 393.54 202.81 389.12 200.74 387.06C199.76 386.08 199.75 384.49 200.73 383.51C202.8 381.44 207.22 377.01 209.28 374.94C210.26 373.96 211.85 373.96 212.84 374.94C214.9 377 219.33 381.42 221.4 383.49Z" id="a4RmEIXD22"></path><path d="M234.28 396.35C235.17 397.24 235.17 398.69 234.28 399.58C232.18 401.68 227.5 406.37 225.41 408.47C224.52 409.36 223.07 409.36 222.18 408.47C220.08 406.38 215.39 401.7 213.29 399.6C212.4 398.71 212.4 397.26 213.29 396.37C215.38 394.27 220.06 389.59 222.16 387.48C223.05 386.59 224.5 386.59 225.39 387.48C227.49 389.58 232.17 394.26 234.28 396.35Z" id="b3fCifphEH"></path><path d="M284.1 370.76C285.08 371.74 285.09 373.33 284.11 374.31C282.04 376.38 277.62 380.81 275.56 382.88C274.58 383.86 272.99 383.86 272 382.88C269.94 380.82 265.51 376.4 263.44 374.33C262.46 373.35 262.46 371.76 263.44 370.78C265.5 368.71 269.92 364.29 271.99 362.22C272.97 361.24 274.56 361.23 275.54 362.21C277.61 364.28 282.03 368.7 284.1 370.76Z" id="a33s2JAh3N"></path><path d="M296.67 383.3C297.74 384.37 297.74 386.11 296.67 387.18C294.64 389.22 290.48 393.38 288.44 395.42C287.37 396.49 285.64 396.49 284.57 395.42C282.53 393.39 278.36 389.23 276.33 387.2C275.26 386.13 275.26 384.39 276.32 383.32C278.36 381.29 282.52 377.12 284.55 375.08C285.62 374.01 287.35 374.01 288.43 375.08C290.46 377.11 294.63 381.27 296.67 383.3Z" id="c3T37PWm6"></path><path d="M271.4 383.49C272.38 384.47 272.38 386.06 271.4 387.04C269.34 389.11 264.92 393.54 262.85 395.6C261.87 396.59 260.28 396.59 259.3 395.61C257.23 393.54 252.81 389.12 250.74 387.06C249.76 386.08 249.75 384.49 250.73 383.51C252.8 381.44 257.22 377.01 259.28 374.94C260.26 373.96 261.85 373.96 262.84 374.94C264.9 377 269.33 381.42 271.4 383.49Z" id="b1eACkOOCz"></path><path d="M284.28 396.35C285.17 397.24 285.17 398.69 284.28 399.58C282.18 401.68 277.5 406.37 275.41 408.47C274.52 409.36 273.07 409.36 272.18 408.47C270.08 406.38 265.39 401.7 263.29 399.6C262.4 398.71 262.4 397.26 263.29 396.37C265.38 394.27 270.06 389.59 272.16 387.48C273.05 386.59 274.5 386.59 275.39 387.48C277.49 389.58 282.17 394.26 284.28 396.35Z" id="cTJMHMAnh"></path><path d="M234.1 421.43C235.08 422.41 235.09 424 234.11 424.98C232.04 427.05 227.62 431.48 225.56 433.55C224.58 434.53 222.99 434.53 222 433.55C219.94 431.48 215.51 427.06 213.44 425C212.46 424.02 212.46 422.43 213.44 421.45C215.5 419.38 219.92 414.95 221.99 412.88C222.97 411.9 224.56 411.9 225.54 412.88C227.61 414.95 232.03 419.36 234.1 421.43Z" id="b5huoxQQS"></path><path d="M246.67 433.97C247.74 435.04 247.74 436.78 246.67 437.85C244.64 439.88 240.48 444.05 238.44 446.09C237.37 447.16 235.64 447.16 234.57 446.09C232.53 444.06 228.36 439.9 226.33 437.86C225.26 436.8 225.26 435.06 226.32 433.99C228.36 431.95 232.52 427.78 234.55 425.75C235.62 424.68 237.35 424.68 238.43 425.74C240.46 427.78 244.63 431.94 246.67 433.97Z" id="b3tQveoKy"></path><path d="M221.4 434.15C222.38 435.14 222.38 436.73 221.4 437.71C219.34 439.78 214.92 444.2 212.85 446.27C211.87 447.25 210.28 447.25 209.3 446.27C207.23 444.21 202.81 439.79 200.74 437.73C199.76 436.75 199.75 435.16 200.73 434.17C202.8 432.11 207.22 427.68 209.28 425.61C210.26 424.63 211.85 424.63 212.84 425.61C214.9 427.67 219.33 432.09 221.4 434.15Z" id="byLn5N7vZ"></path><path d="M234.28 447.02C235.17 447.91 235.17 449.36 234.28 450.25C232.18 452.35 227.5 457.03 225.41 459.14C224.52 460.03 223.07 460.03 222.18 459.14C220.08 457.04 215.39 452.36 213.29 450.27C212.4 449.38 212.4 447.93 213.29 447.04C215.38 444.94 220.06 440.25 222.16 438.15C223.05 437.26 224.5 437.26 225.39 438.15C227.49 440.25 232.17 444.92 234.28 447.02Z" id="b5tI4xxtJ"></path><path d="M284.1 421.43C285.08 422.41 285.09 424 284.11 424.98C282.04 427.05 277.62 431.48 275.56 433.55C274.58 434.53 272.99 434.53 272 433.55C269.94 431.48 265.51 427.06 263.44 425C262.46 424.02 262.46 422.43 263.44 421.45C265.5 419.38 269.92 414.95 271.99 412.88C272.97 411.9 274.56 411.9 275.54 412.88C277.61 414.95 282.03 419.36 284.1 421.43Z" id="a63r1NGL6m"></path><path d="M296.67 433.97C297.74 435.04 297.74 436.78 296.67 437.85C294.64 439.88 290.48 444.05 288.44 446.09C287.37 447.16 285.64 447.16 284.57 446.09C282.53 444.06 278.36 439.9 276.33 437.86C275.26 436.8 275.26 435.06 276.32 433.99C278.36 431.95 282.52 427.78 284.55 425.75C285.62 424.68 287.35 424.68 288.43 425.74C290.46 427.78 294.63 431.94 296.67 433.97Z" id="a2t8tBsdSX"></path><path d="M271.4 434.15C272.38 435.14 272.38 436.73 271.4 437.71C269.34 439.78 264.92 444.2 262.85 446.27C261.87 447.25 260.28 447.25 259.3 446.27C257.23 444.21 252.81 439.79 250.74 437.73C249.76 436.75 249.75 435.16 250.73 434.17C252.8 432.11 257.22 427.68 259.28 425.61C260.26 424.63 261.85 424.63 262.84 425.61C264.9 427.67 269.33 432.09 271.4 434.15Z" id="eznn653G"></path><path d="M284.28 447.02C285.17 447.91 285.17 449.36 284.28 450.25C282.18 452.35 277.5 457.03 275.41 459.14C274.52 460.03 273.07 460.03 272.18 459.14C270.08 457.04 265.39 452.36 263.29 450.27C262.4 449.38 262.4 447.93 263.29 447.04C265.38 444.94 270.06 440.25 272.16 438.15C273.05 437.26 274.5 437.26 275.39 438.15C277.49 440.25 282.17 444.92 284.28 447.02Z" id="e5hTZjWO4v"></path><path d="M334.1 119.76C335.08 120.74 335.09 122.33 334.11 123.31C332.04 125.38 327.62 129.81 325.56 131.88C324.58 132.86 322.99 132.86 322 131.88C319.94 129.82 315.51 125.4 313.44 123.33C312.46 122.35 312.46 120.76 313.44 119.78C315.5 117.71 319.92 113.29 321.99 111.22C322.97 110.24 324.56 110.23 325.54 111.21C327.61 113.28 332.03 117.7 334.1 119.76Z" id="b46zh9prIs"></path><path d="M346.67 132.3C347.74 133.37 347.74 135.11 346.67 136.18C344.64 138.22 340.48 142.38 338.44 144.42C337.37 145.49 335.64 145.49 334.57 144.42C332.53 142.39 328.36 138.23 326.33 136.2C325.26 135.13 325.26 133.39 326.32 132.32C328.36 130.29 332.52 126.12 334.55 124.08C335.62 123.01 337.35 123.01 338.43 124.08C340.46 126.11 344.63 130.27 346.67 132.3Z" id="b4uUkLShs"></path><path d="M321.4 132.49C322.38 133.47 322.38 135.06 321.4 136.04C319.34 138.11 314.92 142.54 312.85 144.6C311.87 145.59 310.28 145.59 309.3 144.61C307.23 142.54 302.81 138.12 300.74 136.06C299.76 135.08 299.75 133.49 300.73 132.51C302.8 130.44 307.22 126.01 309.28 123.94C310.26 122.96 311.85 122.96 312.84 123.94C314.9 126 319.33 130.42 321.4 132.49Z" id="b5iH4LX5tb"></path><path d="M334.28 145.35C335.17 146.24 335.17 147.69 334.28 148.58C332.18 150.68 327.5 155.37 325.41 157.47C324.52 158.36 323.07 158.36 322.18 157.47C320.08 155.38 315.39 150.7 313.29 148.6C312.4 147.71 312.4 146.26 313.29 145.37C315.38 143.27 320.06 138.59 322.16 136.48C323.05 135.59 324.5 135.59 325.39 136.48C327.49 138.58 332.17 143.26 334.28 145.35Z" id="a9EJUmEV6"></path><path d="M334.1 169.43C335.08 170.41 335.09 172 334.11 172.98C332.04 175.05 327.62 179.48 325.56 181.55C324.58 182.53 322.99 182.53 322 181.55C319.94 179.48 315.51 175.06 313.44 173C312.46 172.02 312.46 170.43 313.44 169.45C315.5 167.38 319.92 162.95 321.99 160.88C322.97 159.9 324.56 159.9 325.54 160.88C327.61 162.95 332.03 167.36 334.1 169.43Z" id="b1wGebXjw3"></path><path d="M346.67 181.97C347.74 183.04 347.74 184.78 346.67 185.85C344.64 187.88 340.48 192.05 338.44 194.09C337.37 195.16 335.64 195.16 334.57 194.09C332.53 192.06 328.36 187.9 326.33 185.86C325.26 184.8 325.26 183.06 326.32 181.99C328.36 179.95 332.52 175.78 334.55 173.75C335.62 172.68 337.35 172.68 338.43 173.74C340.46 175.78 344.63 179.94 346.67 181.97Z" id="b4UiCwQKC"></path><path d="M321.4 182.15C322.38 183.14 322.38 184.73 321.4 185.71C319.34 187.78 314.92 192.2 312.85 194.27C311.87 195.25 310.28 195.25 309.3 194.27C307.23 192.21 302.81 187.79 300.74 185.73C299.76 184.75 299.75 183.16 300.73 182.17C302.8 180.11 307.22 175.68 309.28 173.61C310.26 172.63 311.85 172.63 312.84 173.61C314.9 175.67 319.33 180.09 321.4 182.15Z" id="a1mgjTr3yG"></path><path d="M334.28 195.02C335.17 195.91 335.17 197.36 334.28 198.25C332.18 200.35 327.5 205.03 325.41 207.14C324.52 208.03 323.07 208.03 322.18 207.14C320.08 205.04 315.39 200.36 313.29 198.27C312.4 197.38 312.4 195.93 313.29 195.04C315.38 192.94 320.06 188.25 322.16 186.15C323.05 185.26 324.5 185.26 325.39 186.15C327.49 188.25 332.17 192.92 334.28 195.02Z" id="a613TXnaCy"></path><path d="M334.1 219.43C335.08 220.41 335.09 222 334.11 222.98C332.04 225.05 327.62 229.48 325.56 231.55C324.58 232.53 322.99 232.53 322 231.55C319.94 229.48 315.51 225.06 313.44 223C312.46 222.02 312.46 220.43 313.44 219.45C315.5 217.38 319.92 212.95 321.99 210.88C322.97 209.9 324.56 209.9 325.54 210.88C327.61 212.95 332.03 217.36 334.1 219.43Z" id="bBZQMdpyy"></path><path d="M346.67 231.97C347.74 233.04 347.74 234.78 346.67 235.85C344.64 237.88 340.48 242.05 338.44 244.09C337.37 245.16 335.64 245.16 334.57 244.09C332.53 242.06 328.36 237.9 326.33 235.86C325.26 234.8 325.26 233.06 326.32 231.99C328.36 229.95 332.52 225.78 334.55 223.75C335.62 222.68 337.35 222.68 338.43 223.74C340.46 225.78 344.63 229.94 346.67 231.97Z" id="a4Pqd41tVR"></path><path d="M321.4 232.15C322.38 233.14 322.38 234.73 321.4 235.71C319.34 237.78 314.92 242.2 312.85 244.27C311.87 245.25 310.28 245.25 309.3 244.27C307.23 242.21 302.81 237.79 300.74 235.73C299.76 234.75 299.75 233.16 300.73 232.17C302.8 230.11 307.22 225.68 309.28 223.61C310.26 222.63 311.85 222.63 312.84 223.61C314.9 225.67 319.33 230.09 321.4 232.15Z" id="bsCWknl5M"></path><path d="M334.28 245.02C335.17 245.91 335.17 247.36 334.28 248.25C332.18 250.35 327.5 255.03 325.41 257.14C324.52 258.03 323.07 258.03 322.18 257.14C320.08 255.04 315.39 250.36 313.29 248.27C312.4 247.38 312.4 245.93 313.29 245.04C315.38 242.94 320.06 238.25 322.16 236.15C323.05 235.26 324.5 235.26 325.39 236.15C327.49 238.25 332.17 242.92 334.28 245.02Z" id="g1z7VgYsc"></path><path d="M384.1 119.43C385.08 120.41 385.09 122 384.11 122.98C382.04 125.05 377.62 129.48 375.56 131.55C374.58 132.53 372.99 132.53 372 131.55C369.94 129.48 365.51 125.06 363.44 123C362.46 122.02 362.46 120.43 363.44 119.45C365.5 117.38 369.92 112.95 371.99 110.88C372.97 109.9 374.56 109.9 375.54 110.88C377.61 112.95 382.03 117.36 384.1 119.43Z" id="l1FgmaIu30"></path><path d="M396.67 131.97C397.74 133.04 397.74 134.78 396.67 135.85C394.64 137.88 390.48 142.05 388.44 144.09C387.37 145.16 385.64 145.16 384.57 144.09C382.53 142.06 378.36 137.9 376.33 135.86C375.26 134.8 375.26 133.06 376.32 131.99C378.36 129.95 382.52 125.78 384.55 123.75C385.62 122.68 387.35 122.68 388.43 123.74C390.46 125.78 394.63 129.94 396.67 131.97Z" id="a8gChOEbEI"></path><path d="M371.4 132.15C372.38 133.14 372.38 134.73 371.4 135.71C369.34 137.78 364.92 142.2 362.85 144.27C361.87 145.25 360.28 145.25 359.3 144.27C357.23 142.21 352.81 137.79 350.74 135.73C349.76 134.75 349.75 133.16 350.73 132.17C352.8 130.11 357.22 125.68 359.28 123.61C360.26 122.63 361.85 122.63 362.84 123.61C364.9 125.67 369.33 130.09 371.4 132.15Z" id="b1oXlV5Uqj"></path><path d="M384.28 145.02C385.17 145.91 385.17 147.36 384.28 148.25C382.18 150.35 377.5 155.03 375.41 157.14C374.52 158.03 373.07 158.03 372.18 157.14C370.08 155.04 365.39 150.36 363.29 148.27C362.4 147.38 362.4 145.93 363.29 145.04C365.38 142.94 370.06 138.25 372.16 136.15C373.05 135.26 374.5 135.26 375.39 136.15C377.49 138.25 382.17 142.92 384.28 145.02Z" id="b2YYqIFGK7"></path><path d="M384.1 169.43C385.08 170.41 385.09 172 384.11 172.98C382.04 175.05 377.62 179.48 375.56 181.55C374.58 182.53 372.99 182.53 372 181.55C369.94 179.48 365.51 175.06 363.44 173C362.46 172.02 362.46 170.43 363.44 169.45C365.5 167.38 369.92 162.95 371.99 160.88C372.97 159.9 374.56 159.9 375.54 160.88C377.61 162.95 382.03 167.36 384.1 169.43Z" id="a2Vx6VDZkq"></path><path d="M396.67 181.97C397.74 183.04 397.74 184.78 396.67 185.85C394.64 187.88 390.48 192.05 388.44 194.09C387.37 195.16 385.64 195.16 384.57 194.09C382.53 192.06 378.36 187.9 376.33 185.86C375.26 184.8 375.26 183.06 376.32 181.99C378.36 179.95 382.52 175.78 384.55 173.75C385.62 172.68 387.35 172.68 388.43 173.74C390.46 175.78 394.63 179.94 396.67 181.97Z" id="cXDLYcVUN"></path><path d="M371.4 182.15C372.38 183.14 372.38 184.73 371.4 185.71C369.34 187.78 364.92 192.2 362.85 194.27C361.87 195.25 360.28 195.25 359.3 194.27C357.23 192.21 352.81 187.79 350.74 185.73C349.76 184.75 349.75 183.16 350.73 182.17C352.8 180.11 357.22 175.68 359.28 173.61C360.26 172.63 361.85 172.63 362.84 173.61C364.9 175.67 369.33 180.09 371.4 182.15Z" id="c1SGJDG2qw"></path><path d="M384.28 195.02C385.17 195.91 385.17 197.36 384.28 198.25C382.18 200.35 377.5 205.03 375.41 207.14C374.52 208.03 373.07 208.03 372.18 207.14C370.08 205.04 365.39 200.36 363.29 198.27C362.4 197.38 362.4 195.93 363.29 195.04C365.38 192.94 370.06 188.25 372.16 186.15C373.05 185.26 374.5 185.26 375.39 186.15C377.49 188.25 382.17 192.92 384.28 195.02Z" id="a8sGPUShLc"></path><path d="M384.1 219.43C385.08 220.41 385.09 222 384.11 222.98C382.04 225.05 377.62 229.48 375.56 231.55C374.58 232.53 372.99 232.53 372 231.55C369.94 229.48 365.51 225.06 363.44 223C362.46 222.02 362.46 220.43 363.44 219.45C365.5 217.38 369.92 212.95 371.99 210.88C372.97 209.9 374.56 209.9 375.54 210.88C377.61 212.95 382.03 217.36 384.1 219.43Z" id="d32twBNTG8"></path><path d="M396.67 231.97C397.74 233.04 397.74 234.78 396.67 235.85C394.64 237.88 390.48 242.05 388.44 244.09C387.37 245.16 385.64 245.16 384.57 244.09C382.53 242.06 378.36 237.9 376.33 235.86C375.26 234.8 375.26 233.06 376.32 231.99C378.36 229.95 382.52 225.78 384.55 223.75C385.62 222.68 387.35 222.68 388.43 223.74C390.46 225.78 394.63 229.94 396.67 231.97Z" id="c4W4ZM5U6C"></path><path d="M371.4 232.15C372.38 233.14 372.38 234.73 371.4 235.71C369.34 237.78 364.92 242.2 362.85 244.27C361.87 245.25 360.28 245.25 359.3 244.27C357.23 242.21 352.81 237.79 350.74 235.73C349.76 234.75 349.75 233.16 350.73 232.17C352.8 230.11 357.22 225.68 359.28 223.61C360.26 222.63 361.85 222.63 362.84 223.61C364.9 225.67 369.33 230.09 371.4 232.15Z" id="f1mzCMnbl9"></path><path d="M384.28 245.02C385.17 245.91 385.17 247.36 384.28 248.25C382.18 250.35 377.5 255.03 375.41 257.14C374.52 258.03 373.07 258.03 372.18 257.14C370.08 255.04 365.39 250.36 363.29 248.27C362.4 247.38 362.4 245.93 363.29 245.04C365.38 242.94 370.06 238.25 372.16 236.15C373.05 235.26 374.5 235.26 375.39 236.15C377.49 238.25 382.17 242.92 384.28 245.02Z" id="aEa7MWpZ"></path><path d="M334.1 269.76C335.08 270.74 335.09 272.33 334.11 273.31C332.04 275.38 327.62 279.81 325.56 281.88C324.58 282.86 322.99 282.86 322 281.88C319.94 279.82 315.51 275.4 313.44 273.33C312.46 272.35 312.46 270.76 313.44 269.78C315.5 267.71 319.92 263.29 321.99 261.22C322.97 260.24 324.56 260.23 325.54 261.21C327.61 263.28 332.03 267.7 334.1 269.76Z" id="a1UG8OSyk"></path><path d="M346.67 282.3C347.74 283.37 347.74 285.11 346.67 286.18C344.64 288.22 340.48 292.38 338.44 294.42C337.37 295.49 335.64 295.49 334.57 294.42C332.53 292.39 328.36 288.23 326.33 286.2C325.26 285.13 325.26 283.39 326.32 282.32C328.36 280.29 332.52 276.12 334.55 274.08C335.62 273.01 337.35 273.01 338.43 274.08C340.46 276.11 344.63 280.27 346.67 282.3Z" id="gvhuX1td2"></path><path d="M321.4 282.49C322.38 283.47 322.38 285.06 321.4 286.04C319.34 288.11 314.92 292.54 312.85 294.6C311.87 295.59 310.28 295.59 309.3 294.61C307.23 292.54 302.81 288.12 300.74 286.06C299.76 285.08 299.75 283.49 300.73 282.51C302.8 280.44 307.22 276.01 309.28 273.94C310.26 272.96 311.85 272.96 312.84 273.94C314.9 276 319.33 280.42 321.4 282.49Z" id="c2xTlR6iJu"></path><path d="M334.28 295.35C335.17 296.24 335.17 297.69 334.28 298.58C332.18 300.68 327.5 305.37 325.41 307.47C324.52 308.36 323.07 308.36 322.18 307.47C320.08 305.38 315.39 300.7 313.29 298.6C312.4 297.71 312.4 296.26 313.29 295.37C315.38 293.27 320.06 288.59 322.16 286.48C323.05 285.59 324.5 285.59 325.39 286.48C327.49 288.58 332.17 293.26 334.28 295.35Z" id="c1I7m6Trxg"></path><path d="M384.1 269.76C385.08 270.74 385.09 272.33 384.11 273.31C382.04 275.38 377.62 279.81 375.56 281.88C374.58 282.86 372.99 282.86 372 281.88C369.94 279.82 365.51 275.4 363.44 273.33C362.46 272.35 362.46 270.76 363.44 269.78C365.5 267.71 369.92 263.29 371.99 261.22C372.97 260.24 374.56 260.23 375.54 261.21C377.61 263.28 382.03 267.7 384.1 269.76Z" id="b1y5uZLWTS"></path><path d="M396.67 282.3C397.74 283.37 397.74 285.11 396.67 286.18C394.64 288.22 390.48 292.38 388.44 294.42C387.37 295.49 385.64 295.49 384.57 294.42C382.53 292.39 378.36 288.23 376.33 286.2C375.26 285.13 375.26 283.39 376.32 282.32C378.36 280.29 382.52 276.12 384.55 274.08C385.62 273.01 387.35 273.01 388.43 274.08C390.46 276.11 394.63 280.27 396.67 282.3Z" id="a1HtUmBYjY"></path><path d="M371.4 282.49C372.38 283.47 372.38 285.06 371.4 286.04C369.34 288.11 364.92 292.54 362.85 294.6C361.87 295.59 360.28 295.59 359.3 294.61C357.23 292.54 352.81 288.12 350.74 286.06C349.76 285.08 349.75 283.49 350.73 282.51C352.8 280.44 357.22 276.01 359.28 273.94C360.26 272.96 361.85 272.96 362.84 273.94C364.9 276 369.33 280.42 371.4 282.49Z" id="al4FDrg4p"></path><path d="M384.28 295.35C385.17 296.24 385.17 297.69 384.28 298.58C382.18 300.68 377.5 305.37 375.41 307.47C374.52 308.36 373.07 308.36 372.18 307.47C370.08 305.38 365.39 300.7 363.29 298.6C362.4 297.71 362.4 296.26 363.29 295.37C365.38 293.27 370.06 288.59 372.16 286.48C373.05 285.59 374.5 285.59 375.39 286.48C377.49 288.58 382.17 293.26 384.28 295.35Z" id="bAk5CRzpb"></path><path d="M334.1 320.1C335.08 321.08 335.09 322.67 334.11 323.65C332.04 325.72 327.62 330.14 325.56 332.21C324.58 333.19 322.99 333.2 322 332.22C319.94 330.15 315.51 325.73 313.44 323.67C312.46 322.69 312.46 321.1 313.44 320.11C315.5 318.05 319.92 313.62 321.99 311.55C322.97 310.57 324.56 310.57 325.54 311.55C327.61 313.61 332.03 318.03 334.1 320.1Z" id="bXjh86FGs"></path><path d="M346.67 332.64C347.74 333.71 347.74 335.44 346.67 336.51C344.64 338.55 340.48 342.72 338.44 344.75C337.37 345.82 335.64 345.83 334.57 344.76C332.53 342.72 328.36 338.56 326.33 336.53C325.26 335.46 325.26 333.73 326.32 332.66C328.36 330.62 332.52 326.45 334.55 324.41C335.62 323.34 337.35 323.34 338.43 324.41C340.46 326.44 344.63 330.6 346.67 332.64Z" id="ays7WzmPe"></path><path d="M321.4 332.82C322.38 333.8 322.38 335.39 321.4 336.37C319.34 338.44 314.92 342.87 312.85 344.94C311.87 345.92 310.28 345.92 309.3 344.94C307.23 342.88 302.81 338.46 300.74 336.39C299.76 335.41 299.75 333.82 300.73 332.84C302.8 330.77 307.22 326.34 309.28 324.28C310.26 323.29 311.85 323.29 312.84 324.27C314.9 326.34 319.33 330.76 321.4 332.82Z" id="a113aLDjY"></path><path d="M334.28 345.69C335.17 346.58 335.17 348.02 334.28 348.92C332.18 351.02 327.5 355.7 325.41 357.8C324.52 358.7 323.07 358.7 322.18 357.81C320.08 355.71 315.39 351.03 313.29 348.93C312.4 348.04 312.4 346.6 313.29 345.7C315.38 343.6 320.06 338.92 322.16 336.82C323.05 335.92 324.5 335.92 325.39 336.81C327.49 338.91 332.17 343.59 334.28 345.69Z" id="a3F3x2psG"></path><path d="M384.1 320.1C385.08 321.08 385.09 322.67 384.11 323.65C382.04 325.72 377.62 330.14 375.56 332.21C374.58 333.19 372.99 333.2 372 332.22C369.94 330.15 365.51 325.73 363.44 323.67C362.46 322.69 362.46 321.1 363.44 320.11C365.5 318.05 369.92 313.62 371.99 311.55C372.97 310.57 374.56 310.57 375.54 311.55C377.61 313.61 382.03 318.03 384.1 320.1Z" id="a1uR0ScuN3"></path><path d="M396.67 332.64C397.74 333.71 397.74 335.44 396.67 336.51C394.64 338.55 390.48 342.72 388.44 344.75C387.37 345.82 385.64 345.83 384.57 344.76C382.53 342.72 378.36 338.56 376.33 336.53C375.26 335.46 375.26 333.73 376.32 332.66C378.36 330.62 382.52 326.45 384.55 324.41C385.62 323.34 387.35 323.34 388.43 324.41C390.46 326.44 394.63 330.6 396.67 332.64Z" id="e4hnvPP371"></path><path d="M371.4 332.82C372.38 333.8 372.38 335.39 371.4 336.37C369.34 338.44 364.92 342.87 362.85 344.94C361.87 345.92 360.28 345.92 359.3 344.94C357.23 342.88 352.81 338.46 350.74 336.39C349.76 335.41 349.75 333.82 350.73 332.84C352.8 330.77 357.22 326.34 359.28 324.28C360.26 323.29 361.85 323.29 362.84 324.27C364.9 326.34 369.33 330.76 371.4 332.82Z" id="b7A4s7cZP"></path><path d="M384.28 345.69C385.17 346.58 385.17 348.02 384.28 348.92C382.18 351.02 377.5 355.7 375.41 357.8C374.52 358.7 373.07 358.7 372.18 357.81C370.08 355.71 365.39 351.03 363.29 348.93C362.4 348.04 362.4 346.6 363.29 345.7C365.38 343.6 370.06 338.92 372.16 336.82C373.05 335.92 374.5 335.92 375.39 336.81C377.49 338.91 382.17 343.59 384.28 345.69Z" id="d46Ympdvg"></path><path d="M334.1 370.43C335.08 371.41 335.09 373 334.11 373.98C332.04 376.05 327.62 380.48 325.56 382.55C324.58 383.53 322.99 383.53 322 382.55C319.94 380.48 315.51 376.06 313.44 374C312.46 373.02 312.46 371.43 313.44 370.45C315.5 368.38 319.92 363.95 321.99 361.88C322.97 360.9 324.56 360.9 325.54 361.88C327.61 363.95 332.03 368.36 334.1 370.43Z" id="e8bRA2BNs"></path><path d="M346.67 382.97C347.74 384.04 347.74 385.78 346.67 386.85C344.64 388.88 340.48 393.05 338.44 395.09C337.37 396.16 335.64 396.16 334.57 395.09C332.53 393.06 328.36 388.9 326.33 386.86C325.26 385.8 325.26 384.06 326.32 382.99C328.36 380.95 332.52 376.78 334.55 374.75C335.62 373.68 337.35 373.68 338.43 374.74C340.46 376.78 344.63 380.94 346.67 382.97Z" id="a4CpkmTGsw"></path><path d="M321.4 383.15C322.38 384.14 322.38 385.73 321.4 386.71C319.34 388.78 314.92 393.2 312.85 395.27C311.87 396.25 310.28 396.25 309.3 395.27C307.23 393.21 302.81 388.79 300.74 386.73C299.76 385.75 299.75 384.16 300.73 383.17C302.8 381.11 307.22 376.68 309.28 374.61C310.26 373.63 311.85 373.63 312.84 374.61C314.9 376.67 319.33 381.09 321.4 383.15Z" id="a2nwpfmxN6"></path><path d="M334.28 396.02C335.17 396.91 335.17 398.36 334.28 399.25C332.18 401.35 327.5 406.03 325.41 408.14C324.52 409.03 323.07 409.03 322.18 408.14C320.08 406.04 315.39 401.36 313.29 399.27C312.4 398.38 312.4 396.93 313.29 396.04C315.38 393.94 320.06 389.25 322.16 387.15C323.05 386.26 324.5 386.26 325.39 387.15C327.49 389.25 332.17 393.92 334.28 396.02Z" id="c1KYttTcKc"></path><path d="M384.1 370.43C385.08 371.41 385.09 373 384.11 373.98C382.04 376.05 377.62 380.48 375.56 382.55C374.58 383.53 372.99 383.53 372 382.55C369.94 380.48 365.51 376.06 363.44 374C362.46 373.02 362.46 371.43 363.44 370.45C365.5 368.38 369.92 363.95 371.99 361.88C372.97 360.9 374.56 360.9 375.54 361.88C377.61 363.95 382.03 368.36 384.1 370.43Z" id="b17r9eEPKl"></path><path d="M396.67 382.97C397.74 384.04 397.74 385.78 396.67 386.85C394.64 388.88 390.48 393.05 388.44 395.09C387.37 396.16 385.64 396.16 384.57 395.09C382.53 393.06 378.36 388.9 376.33 386.86C375.26 385.8 375.26 384.06 376.32 382.99C378.36 380.95 382.52 376.78 384.55 374.75C385.62 373.68 387.35 373.68 388.43 374.74C390.46 376.78 394.63 380.94 396.67 382.97Z" id="d4TbMqlACW"></path><path d="M371.4 383.15C372.38 384.14 372.38 385.73 371.4 386.71C369.34 388.78 364.92 393.2 362.85 395.27C361.87 396.25 360.28 396.25 359.3 395.27C357.23 393.21 352.81 388.79 350.74 386.73C349.76 385.75 349.75 384.16 350.73 383.17C352.8 381.11 357.22 376.68 359.28 374.61C360.26 373.63 361.85 373.63 362.84 374.61C364.9 376.67 369.33 381.09 371.4 383.15Z" id="axHLZVO4L"></path><path d="M384.28 396.02C385.17 396.91 385.17 398.36 384.28 399.25C382.18 401.35 377.5 406.03 375.41 408.14C374.52 409.03 373.07 409.03 372.18 408.14C370.08 406.04 365.39 401.36 363.29 399.27C362.4 398.38 362.4 396.93 363.29 396.04C365.38 393.94 370.06 389.25 372.16 387.15C373.05 386.26 374.5 386.26 375.39 387.15C377.49 389.25 382.17 393.92 384.28 396.02Z" id="as9JxSSzN"></path><path d="M334.1 421.1C335.08 422.08 335.09 423.67 334.11 424.65C332.04 426.72 327.62 431.14 325.56 433.21C324.58 434.19 322.99 434.2 322 433.22C319.94 431.15 315.51 426.73 313.44 424.67C312.46 423.69 312.46 422.1 313.44 421.11C315.5 419.05 319.92 414.62 321.99 412.55C322.97 411.57 324.56 411.57 325.54 412.55C327.61 414.61 332.03 419.03 334.1 421.1Z" id="c2c40E9g3W"></path><path d="M346.67 433.64C347.74 434.71 347.74 436.44 346.67 437.51C344.64 439.55 340.48 443.72 338.44 445.75C337.37 446.82 335.64 446.83 334.57 445.76C332.53 443.72 328.36 439.56 326.33 437.53C325.26 436.46 325.26 434.73 326.32 433.66C328.36 431.62 332.52 427.45 334.55 425.41C335.62 424.34 337.35 424.34 338.43 425.41C340.46 427.44 344.63 431.6 346.67 433.64Z" id="aCjNB4VtR"></path><path d="M321.4 433.82C322.38 434.8 322.38 436.39 321.4 437.37C319.34 439.44 314.92 443.87 312.85 445.94C311.87 446.92 310.28 446.92 309.3 445.94C307.23 443.88 302.81 439.46 300.74 437.39C299.76 436.41 299.75 434.82 300.73 433.84C302.8 431.77 307.22 427.34 309.28 425.28C310.26 424.29 311.85 424.29 312.84 425.27C314.9 427.34 319.33 431.76 321.4 433.82Z" id="a1x2HEItEF"></path><path d="M334.28 446.69C335.17 447.58 335.17 449.02 334.28 449.92C332.18 452.02 327.5 456.7 325.41 458.8C324.52 459.7 323.07 459.7 322.18 458.81C320.08 456.71 315.39 452.03 313.29 449.93C312.4 449.04 312.4 447.6 313.29 446.7C315.38 444.6 320.06 439.92 322.16 437.82C323.05 436.92 324.5 436.92 325.39 437.81C327.49 439.91 332.17 444.59 334.28 446.69Z" id="c6aRoqUJ7N"></path><path d="M384.1 421.1C385.08 422.08 385.09 423.67 384.11 424.65C382.04 426.72 377.62 431.14 375.56 433.21C374.58 434.19 372.99 434.2 372 433.22C369.94 431.15 365.51 426.73 363.44 424.67C362.46 423.69 362.46 422.1 363.44 421.11C365.5 419.05 369.92 414.62 371.99 412.55C372.97 411.57 374.56 411.57 375.54 412.55C377.61 414.61 382.03 419.03 384.1 421.1Z" id="ip8BBLhaO"></path><path d="M396.67 433.64C397.74 434.71 397.74 436.44 396.67 437.51C394.64 439.55 390.48 443.72 388.44 445.75C387.37 446.82 385.64 446.83 384.57 445.76C382.53 443.72 378.36 439.56 376.33 437.53C375.26 436.46 375.26 434.73 376.32 433.66C378.36 431.62 382.52 427.45 384.55 425.41C385.62 424.34 387.35 424.34 388.43 425.41C390.46 427.44 394.63 431.6 396.67 433.64Z" id="h1HvsOGfuB"></path><path d="M371.4 433.82C372.38 434.8 372.38 436.39 371.4 437.37C369.34 439.44 364.92 443.87 362.85 445.94C361.87 446.92 360.28 446.92 359.3 445.94C357.23 443.88 352.81 439.46 350.74 437.39C349.76 436.41 349.75 434.82 350.73 433.84C352.8 431.77 357.22 427.34 359.28 425.28C360.26 424.29 361.85 424.29 362.84 425.27C364.9 427.34 369.33 431.76 371.4 433.82Z" id="c5yzJVEbal"></path><path d="M384.28 446.69C385.17 447.58 385.17 449.02 384.28 449.92C382.18 452.02 377.5 456.7 375.41 458.8C374.52 459.7 373.07 459.7 372.18 458.81C370.08 456.71 365.39 452.03 363.29 449.93C362.4 449.04 362.4 447.6 363.29 446.7C365.38 444.6 370.06 439.92 372.16 437.82C373.05 436.92 374.5 436.92 375.39 437.81C377.49 439.91 382.17 444.59 384.28 446.69Z" id="c34UUWRmNa"></path><path d="M435.37 119.43C436.35 120.41 436.35 122 435.37 122.98C433.31 125.05 428.89 129.48 426.82 131.55C425.84 132.53 424.25 132.53 423.27 131.55C421.2 129.48 416.77 125.06 414.7 123C413.72 122.02 413.72 120.43 414.7 119.45C416.77 117.38 421.19 112.95 423.25 110.88C424.23 109.9 425.82 109.9 426.8 110.88C428.87 112.95 433.3 117.36 435.37 119.43Z" id="c1Ij0CQVkd"></path><path d="M447.93 131.97C449 133.04 449 134.78 447.93 135.85C445.9 137.88 441.74 142.05 439.71 144.09C438.64 145.16 436.9 145.16 435.83 144.09C433.8 142.06 429.63 137.9 427.59 135.86C426.52 134.8 426.52 133.06 427.59 131.99C429.62 129.95 433.78 125.78 435.81 123.75C436.88 122.68 438.62 122.68 439.69 123.74C441.73 125.78 445.89 129.94 447.93 131.97Z" id="am6zULRlB"></path><path d="M422.66 132.15C423.65 133.14 423.65 134.73 422.67 135.71C420.6 137.78 416.18 142.2 414.12 144.27C413.14 145.25 411.55 145.25 410.57 144.27C408.5 142.21 404.07 137.79 402 135.73C401.02 134.75 401.02 133.16 402 132.17C404.06 130.11 408.48 125.68 410.55 123.61C411.53 122.63 413.12 122.63 414.1 123.61C416.17 125.67 420.6 130.09 422.66 132.15Z" id="b31YqVI4F8"></path><path d="M435.54 145.02C436.43 145.91 436.43 147.36 435.54 148.25C433.45 150.35 428.77 155.03 426.67 157.14C425.78 158.03 424.33 158.03 423.44 157.14C421.34 155.04 416.66 150.36 414.56 148.27C413.66 147.38 413.66 145.93 414.55 145.04C416.65 142.94 421.33 138.25 423.42 136.15C424.31 135.26 425.76 135.26 426.65 136.15C428.75 138.25 433.44 142.92 435.54 145.02Z" id="d14jzXvRRY"></path><path d="M435.37 169.43C436.35 170.41 436.35 172 435.37 172.98C433.31 175.05 428.89 179.48 426.82 181.55C425.84 182.53 424.25 182.53 423.27 181.55C421.2 179.48 416.77 175.06 414.7 173C413.72 172.02 413.72 170.43 414.7 169.45C416.77 167.38 421.19 162.95 423.25 160.88C424.23 159.9 425.82 159.9 426.8 160.88C428.87 162.95 433.3 167.36 435.37 169.43Z" id="f1zz0bBUk7"></path><path d="M447.93 181.97C449 183.04 449 184.78 447.93 185.85C445.9 187.88 441.74 192.05 439.71 194.09C438.64 195.16 436.9 195.16 435.83 194.09C433.8 192.06 429.63 187.9 427.59 185.86C426.52 184.8 426.52 183.06 427.59 181.99C429.62 179.95 433.78 175.78 435.81 173.75C436.88 172.68 438.62 172.68 439.69 173.74C441.73 175.78 445.89 179.94 447.93 181.97Z" id="e3E92heehc"></path><path d="M422.66 182.15C423.65 183.14 423.65 184.73 422.67 185.71C420.6 187.78 416.18 192.2 414.12 194.27C413.14 195.25 411.55 195.25 410.57 194.27C408.5 192.21 404.07 187.79 402 185.73C401.02 184.75 401.02 183.16 402 182.17C404.06 180.11 408.48 175.68 410.55 173.61C411.53 172.63 413.12 172.63 414.1 173.61C416.17 175.67 420.6 180.09 422.66 182.15Z" id="alb1dn592"></path><path d="M435.54 195.02C436.43 195.91 436.43 197.36 435.54 198.25C433.45 200.35 428.77 205.03 426.67 207.14C425.78 208.03 424.33 208.03 423.44 207.14C421.34 205.04 416.66 200.36 414.56 198.27C413.66 197.38 413.66 195.93 414.55 195.04C416.65 192.94 421.33 188.25 423.42 186.15C424.31 185.26 425.76 185.26 426.65 186.15C428.75 188.25 433.44 192.92 435.54 195.02Z" id="gMG3lJ8Gw"></path><path d="M435.37 219.43C436.35 220.41 436.35 222 435.37 222.98C433.31 225.05 428.89 229.48 426.82 231.55C425.84 232.53 424.25 232.53 423.27 231.55C421.2 229.48 416.77 225.06 414.7 223C413.72 222.02 413.72 220.43 414.7 219.45C416.77 217.38 421.19 212.95 423.25 210.88C424.23 209.9 425.82 209.9 426.8 210.88C428.87 212.95 433.3 217.36 435.37 219.43Z" id="a1c0P0bAN0"></path><path d="M447.93 231.97C449 233.04 449 234.78 447.93 235.85C445.9 237.88 441.74 242.05 439.71 244.09C438.64 245.16 436.9 245.16 435.83 244.09C433.8 242.06 429.63 237.9 427.59 235.86C426.52 234.8 426.52 233.06 427.59 231.99C429.62 229.95 433.78 225.78 435.81 223.75C436.88 222.68 438.62 222.68 439.69 223.74C441.73 225.78 445.89 229.94 447.93 231.97Z" id="d2d2v8AkTt"></path><path d="M422.66 232.15C423.65 233.14 423.65 234.73 422.67 235.71C420.6 237.78 416.18 242.2 414.12 244.27C413.14 245.25 411.55 245.25 410.57 244.27C408.5 242.21 404.07 237.79 402 235.73C401.02 234.75 401.02 233.16 402 232.17C404.06 230.11 408.48 225.68 410.55 223.61C411.53 222.63 413.12 222.63 414.1 223.61C416.17 225.67 420.6 230.09 422.66 232.15Z" id="b1NjT62aty"></path><path d="M435.54 245.02C436.43 245.91 436.43 247.36 435.54 248.25C433.45 250.35 428.77 255.03 426.67 257.14C425.78 258.03 424.33 258.03 423.44 257.14C421.34 255.04 416.66 250.36 414.56 248.27C413.66 247.38 413.66 245.93 414.55 245.04C416.65 242.94 421.33 238.25 423.42 236.15C424.31 235.26 425.76 235.26 426.65 236.15C428.75 238.25 433.44 242.92 435.54 245.02Z" id="eXmMhfbGs"></path><path d="M435.37 269.76C436.35 270.74 436.35 272.33 435.37 273.31C433.31 275.38 428.89 279.81 426.82 281.88C425.84 282.86 424.25 282.86 423.27 281.88C421.2 279.82 416.77 275.4 414.7 273.33C413.72 272.35 413.72 270.76 414.7 269.78C416.77 267.71 421.19 263.29 423.25 261.22C424.23 260.24 425.82 260.23 426.8 261.21C428.87 263.28 433.3 267.7 435.37 269.76Z" id="bMPJRYu4H"></path><path d="M447.93 282.3C449 283.37 449 285.11 447.93 286.18C445.9 288.22 441.74 292.38 439.71 294.42C438.64 295.49 436.9 295.49 435.83 294.42C433.8 292.39 429.63 288.23 427.59 286.2C426.52 285.13 426.52 283.39 427.59 282.32C429.62 280.29 433.78 276.12 435.81 274.08C436.88 273.01 438.62 273.01 439.69 274.08C441.73 276.11 445.89 280.27 447.93 282.3Z" id="aiwU7sdg1"></path><path d="M422.66 282.49C423.65 283.47 423.65 285.06 422.67 286.04C420.6 288.11 416.18 292.54 414.12 294.6C413.14 295.59 411.55 295.59 410.57 294.61C408.5 292.54 404.07 288.12 402 286.06C401.02 285.08 401.02 283.49 402 282.51C404.06 280.44 408.48 276.01 410.55 273.94C411.53 272.96 413.12 272.96 414.1 273.94C416.17 276 420.6 280.42 422.66 282.49Z" id="btPSsZOmf"></path><path d="M435.54 295.35C436.43 296.24 436.43 297.69 435.54 298.58C433.45 300.68 428.77 305.37 426.67 307.47C425.78 308.36 424.33 308.36 423.44 307.47C421.34 305.38 416.66 300.7 414.56 298.6C413.66 297.71 413.66 296.26 414.55 295.37C416.65 293.27 421.33 288.59 423.42 286.48C424.31 285.59 425.76 285.59 426.65 286.48C428.75 288.58 433.44 293.26 435.54 295.35Z" id="b1feQhKix"></path><path d="M435.37 320.1C436.35 321.08 436.35 322.67 435.37 323.65C433.31 325.72 428.89 330.14 426.82 332.21C425.84 333.19 424.25 333.2 423.27 332.22C421.2 330.15 416.77 325.73 414.7 323.67C413.72 322.69 413.72 321.1 414.7 320.11C416.77 318.05 421.19 313.62 423.25 311.55C424.23 310.57 425.82 310.57 426.8 311.55C428.87 313.61 433.3 318.03 435.37 320.1Z" id="bpOQs8A8U"></path><path d="M447.93 332.64C449 333.71 449 335.44 447.93 336.51C445.9 338.55 441.74 342.72 439.71 344.75C438.64 345.82 436.9 345.83 435.83 344.76C433.8 342.72 429.63 338.56 427.59 336.53C426.52 335.46 426.52 333.73 427.59 332.66C429.62 330.62 433.78 326.45 435.81 324.41C436.88 323.34 438.62 323.34 439.69 324.41C441.73 326.44 445.89 330.6 447.93 332.64Z" id="dCw1koLkd"></path><path d="M422.66 332.82C423.65 333.8 423.65 335.39 422.67 336.37C420.6 338.44 416.18 342.87 414.12 344.94C413.14 345.92 411.55 345.92 410.57 344.94C408.5 342.88 404.07 338.46 402 336.39C401.02 335.41 401.02 333.82 402 332.84C404.06 330.77 408.48 326.34 410.55 324.28C411.53 323.29 413.12 323.29 414.1 324.27C416.17 326.34 420.6 330.76 422.66 332.82Z" id="c1qhSh5PrV"></path><path d="M435.54 345.69C436.43 346.58 436.43 348.02 435.54 348.92C433.45 351.02 428.77 355.7 426.67 357.8C425.78 358.7 424.33 358.7 423.44 357.81C421.34 355.71 416.66 351.03 414.56 348.93C413.66 348.04 413.66 346.6 414.55 345.7C416.65 343.6 421.33 338.92 423.42 336.82C424.31 335.92 425.76 335.92 426.65 336.81C428.75 338.91 433.44 343.59 435.54 345.69Z" id="dgwEjsawS"></path><path d="M435.37 370.43C436.35 371.41 436.35 373 435.37 373.98C433.31 376.05 428.89 380.48 426.82 382.55C425.84 383.53 424.25 383.53 423.27 382.55C421.2 380.48 416.77 376.06 414.7 374C413.72 373.02 413.72 371.43 414.7 370.45C416.77 368.38 421.19 363.95 423.25 361.88C424.23 360.9 425.82 360.9 426.8 361.88C428.87 363.95 433.3 368.36 435.37 370.43Z" id="a6k32iXYG"></path><path d="M447.93 382.97C449 384.04 449 385.78 447.93 386.85C445.9 388.88 441.74 393.05 439.71 395.09C438.64 396.16 436.9 396.16 435.83 395.09C433.8 393.06 429.63 388.9 427.59 386.86C426.52 385.8 426.52 384.06 427.59 382.99C429.62 380.95 433.78 376.78 435.81 374.75C436.88 373.68 438.62 373.68 439.69 374.74C441.73 376.78 445.89 380.94 447.93 382.97Z" id="b18H0JMGs"></path><path d="M422.66 383.15C423.65 384.14 423.65 385.73 422.67 386.71C420.6 388.78 416.18 393.2 414.12 395.27C413.14 396.25 411.55 396.25 410.57 395.27C408.5 393.21 404.07 388.79 402 386.73C401.02 385.75 401.02 384.16 402 383.17C404.06 381.11 408.48 376.68 410.55 374.61C411.53 373.63 413.12 373.63 414.1 374.61C416.17 376.67 420.6 381.09 422.66 383.15Z" id="c3KtLFmuyE"></path><path d="M435.54 396.02C436.43 396.91 436.43 398.36 435.54 399.25C433.45 401.35 428.77 406.03 426.67 408.14C425.78 409.03 424.33 409.03 423.44 408.14C421.34 406.04 416.66 401.36 414.56 399.27C413.66 398.38 413.66 396.93 414.55 396.04C416.65 393.94 421.33 389.25 423.42 387.15C424.31 386.26 425.76 386.26 426.65 387.15C428.75 389.25 433.44 393.92 435.54 396.02Z" id="a303tw2qER"></path><path d="M435.37 421.1C436.35 422.08 436.35 423.67 435.37 424.65C433.31 426.72 428.89 431.14 426.82 433.21C425.84 434.19 424.25 434.2 423.27 433.22C421.2 431.15 416.77 426.73 414.7 424.67C413.72 423.69 413.72 422.1 414.7 421.11C416.77 419.05 421.19 414.62 423.25 412.55C424.23 411.57 425.82 411.57 426.8 412.55C428.87 414.61 433.3 419.03 435.37 421.1Z" id="aiK49y16K"></path><path d="M447.93 433.64C449 434.71 449 436.44 447.93 437.51C445.9 439.55 441.74 443.72 439.71 445.75C438.64 446.82 436.9 446.83 435.83 445.76C433.8 443.72 429.63 439.56 427.59 437.53C426.52 436.46 426.52 434.73 427.59 433.66C429.62 431.62 433.78 427.45 435.81 425.41C436.88 424.34 438.62 424.34 439.69 425.41C441.73 427.44 445.89 431.6 447.93 433.64Z" id="c1o3ZFhmtO"></path><path d="M422.66 433.82C423.65 434.8 423.65 436.39 422.67 437.37C420.6 439.44 416.18 443.87 414.12 445.94C413.14 446.92 411.55 446.92 410.57 445.94C408.5 443.88 404.07 439.46 402 437.39C401.02 436.41 401.02 434.82 402 433.84C404.06 431.77 408.48 427.34 410.55 425.28C411.53 424.29 413.12 424.29 414.1 425.27C416.17 427.34 420.6 431.76 422.66 433.82Z" id="a13NFMP16"></path><path d="M435.54 446.69C436.43 447.58 436.43 449.02 435.54 449.92C433.45 452.02 428.77 456.7 426.67 458.8C425.78 459.7 424.33 459.7 423.44 458.81C421.34 456.71 416.66 452.03 414.56 449.93C413.66 449.04 413.66 447.6 414.55 446.7C416.65 444.6 421.33 439.92 423.42 437.82C424.31 436.92 425.76 436.92 426.65 437.81C428.75 439.91 433.44 444.59 435.54 446.69Z" id="aTKtZ5vjP"></path></defs><g><g><g><use xlink:href="#bO0GNxvT9" opacity="1" fill="#210065" fill-opacity="1"></use><g><use xlink:href="#bO0GNxvT9" opacity="1" fill-opacity="0" stroke="#000000" stroke-width="5" stroke-opacity="1"></use></g></g><g><g><g><use xlink:href="#b8sUCLe4R" opacity="1" fill="#03055d" fill-opacity="1"></use><g><use xlink:href="#b8sUCLe4R" opacity="1" fill-opacity="0" stroke="#ffffff" stroke-width="1" stroke-opacity="0.97"></use></g></g><g><use xlink:href="#a1TDObmDHl" opacity="1" fill="#03055d" fill-opacity="1"></use><g><use xlink:href="#a1TDObmDHl" opacity="1" fill-opacity="0" stroke="#ffffff" stroke-width="1" stroke-opacity="0.97"></use></g></g><g><use xlink:href="#d3I4JPqVqw" opacity="1" fill="#03055d" fill-opacity="1"></use><g><use xlink:href="#d3I4JPqVqw" opacity="1" fill-opacity="0" stroke="#ffffff" stroke-width="1" stroke-opacity="0.97"></use></g></g><g><use xlink:href="#b3HXsZ5Ne5" opacity="1" fill="#03055d" fill-opacity="1"></use><g><use xlink:href="#b3HXsZ5Ne5" opacity="1" fill-opacity="0" stroke="#ffffff" stroke-width="1" stroke-opacity="0.97"></use></g></g></g><g><g><use xlink:href="#h6Y9Ntl3V" opacity="1" fill="#03055d" fill-opacity="1"></use><g><use xlink:href="#h6Y9Ntl3V" opacity="1" fill-opacity="0" stroke="#ffffff" stroke-width="1" stroke-opacity="0.97"></use></g></g><g><use xlink:href="#aoiMpndp6" opacity="1" fill="#03055d" fill-opacity="1"></use><g><use xlink:href="#aoiMpndp6" opacity="1" fill-opacity="0" stroke="#ffffff" stroke-width="1" stroke-opacity="0.97"></use></g></g><g><use xlink:href="#a3z6x4lwb" opacity="1" fill="#03055d" fill-opacity="1"></use><g><use xlink:href="#a3z6x4lwb" opacity="1" fill-opacity="0" stroke="#ffffff" stroke-width="1" stroke-opacity="0.97"></use></g></g><g><use xlink:href="#aR2faWddz" opacity="1" fill="#03055d" fill-opacity="1"></use><g><use xlink:href="#aR2faWddz" opacity="1" fill-opacity="0" stroke="#ffffff" stroke-width="1" stroke-opacity="0.97"></use></g></g></g><g><g><use xlink:href="#a5ozceVRBe" opacity="1" fill="#03055d" fill-opacity="1"></use><g><use xlink:href="#a5ozceVRBe" opacity="1" fill-opacity="0" stroke="#ffffff" stroke-width="1" stroke-opacity="0.97"></use></g></g><g><use xlink:href="#ajear5IyJ" opacity="1" fill="#03055d" fill-opacity="1"></use><g><use xlink:href="#ajear5IyJ" opacity="1" fill-opacity="0" stroke="#ffffff" stroke-width="1" stroke-opacity="0.97"></use></g></g><g><use xlink:href="#g7LZXc6DXg" opacity="1" fill="#03055d" fill-opacity="1"></use><g><use xlink:href="#g7LZXc6DXg" opacity="1" fill-opacity="0" stroke="#ffffff" stroke-width="1" stroke-opacity="0.97"></use></g></g><g><use xlink:href="#a1qR28D6QV" opacity="1" fill="#03055d" fill-opacity="1"></use><g><use xlink:href="#a1qR28D6QV" opacity="1" fill-opacity="0" stroke="#ffffff" stroke-width="1" stroke-opacity="0.97"></use></g></g></g><g><g><use xlink:href="#bjpzVSmx2" opacity="1" fill="#03055d" fill-opacity="1"></use><g><use xlink:href="#bjpzVSmx2" opacity="1" fill-opacity="0" stroke="#ffffff" stroke-width="1" stroke-opacity="0.97"></use></g></g><g><use xlink:href="#cDYAyUiS" opacity="1" fill="#03055d" fill-opacity="1"></use><g><use xlink:href="#cDYAyUiS" opacity="1" fill-opacity="0" stroke="#ffffff" stroke-width="1" stroke-opacity="0.97"></use></g></g><g><use xlink:href="#b1ytBEPM6Q" opacity="1" fill="#03055d" fill-opacity="1"></use><g><use xlink:href="#b1ytBEPM6Q" opacity="1" fill-opacity="0" stroke="#ffffff" stroke-width="1" stroke-opacity="0.97"></use></g></g><g><use xlink:href="#d1R74ARCjY" opacity="1" fill="#03055d" fill-opacity="1"></use><g><use xlink:href="#d1R74ARCjY" opacity="1" fill-opacity="0" stroke="#ffffff" stroke-width="1" stroke-opacity="0.97"></use></g></g></g><g><g><use xlink:href="#g1AooW2qlq" opacity="1" fill="#03055d" fill-opacity="1"></use><g><use xlink:href="#g1AooW2qlq" opacity="1" fill-opacity="0" stroke="#ffffff" stroke-width="1" stroke-opacity="0.97"></use></g></g><g><use xlink:href="#cqy4VC5C5" opacity="1" fill="#03055d" fill-opacity="1"></use><g><use xlink:href="#cqy4VC5C5" opacity="1" fill-opacity="0" stroke="#ffffff" stroke-width="1" stroke-opacity="0.97"></use></g></g><g><use xlink:href="#d30wjlpBNu" opacity="1" fill="#03055d" fill-opacity="1"></use><g><use xlink:href="#d30wjlpBNu" opacity="1" fill-opacity="0" stroke="#ffffff" stroke-width="1" stroke-opacity="0.97"></use></g></g><g><use xlink:href="#hZB1CtVk" opacity="1" fill="#03055d" fill-opacity="1"></use><g><use xlink:href="#hZB1CtVk" opacity="1" fill-opacity="0" stroke="#ffffff" stroke-width="1" stroke-opacity="0.97"></use></g></g></g><g><g><use xlink:href="#a4JA52u2BQ" opacity="1" fill="#03055d" fill-opacity="1"></use><g><use xlink:href="#a4JA52u2BQ" opacity="1" fill-opacity="0" stroke="#ffffff" stroke-width="1" stroke-opacity="0.97"></use></g></g><g><use xlink:href="#biufoUZQd" opacity="1" fill="#03055d" fill-opacity="1"></use><g><use xlink:href="#biufoUZQd" opacity="1" fill-opacity="0" stroke="#ffffff" stroke-width="1" stroke-opacity="0.97"></use></g></g><g><use xlink:href="#a8YMUd5GXk" opacity="1" fill="#03055d" fill-opacity="1"></use><g><use xlink:href="#a8YMUd5GXk" opacity="1" fill-opacity="0" stroke="#ffffff" stroke-width="1" stroke-opacity="0.97"></use></g></g><g><use xlink:href="#bkzd5i7Fe" opacity="1" fill="#03055d" fill-opacity="1"></use><g><use xlink:href="#bkzd5i7Fe" opacity="1" fill-opacity="0" stroke="#ffffff" stroke-width="1" stroke-opacity="0.97"></use></g></g></g><g><g><use xlink:href="#a29XrR8GOi" opacity="1" fill="#03055d" fill-opacity="1"></use><g><use xlink:href="#a29XrR8GOi" opacity="1" fill-opacity="0" stroke="#ffffff" stroke-width="1" stroke-opacity="0.97"></use></g></g><g><use xlink:href="#b2wNJL0FL" opacity="1" fill="#03055d" fill-opacity="1"></use><g><use xlink:href="#b2wNJL0FL" opacity="1" fill-opacity="0" stroke="#ffffff" stroke-width="1" stroke-opacity="0.97"></use></g></g><g><use xlink:href="#bpiLtz6ME" opacity="1" fill="#03055d" fill-opacity="1"></use><g><use xlink:href="#bpiLtz6ME" opacity="1" fill-opacity="0" stroke="#ffffff" stroke-width="1" stroke-opacity="0.97"></use></g></g><g><use xlink:href="#bDpn2yYK6" opacity="1" fill="#03055d" fill-opacity="1"></use><g><use xlink:href="#bDpn2yYK6" opacity="1" fill-opacity="0" stroke="#ffffff" stroke-width="1" stroke-opacity="0.97"></use></g></g></g><g><g><use xlink:href="#etXDgzqJf" opacity="1" fill="#03055d" fill-opacity="1"></use><g><use xlink:href="#etXDgzqJf" opacity="1" fill-opacity="0" stroke="#ffffff" stroke-width="1" stroke-opacity="0.97"></use></g></g><g><use xlink:href="#b1vfD5pAmW" opacity="1" fill="#03055d" fill-opacity="1"></use><g><use xlink:href="#b1vfD5pAmW" opacity="1" fill-opacity="0" stroke="#ffffff" stroke-width="1" stroke-opacity="0.97"></use></g></g><g><use xlink:href="#b58okToPZW" opacity="1" fill="#03055d" fill-opacity="1"></use><g><use xlink:href="#b58okToPZW" opacity="1" fill-opacity="0" stroke="#ffffff" stroke-width="1" stroke-opacity="0.97"></use></g></g><g><use xlink:href="#a3cpjEWgOJ" opacity="1" fill="#03055d" fill-opacity="1"></use><g><use xlink:href="#a3cpjEWgOJ" opacity="1" fill-opacity="0" stroke="#ffffff" stroke-width="1" stroke-opacity="0.97"></use></g></g></g><g><g><use xlink:href="#b3YXN4yGKV" opacity="1" fill="#03055d" fill-opacity="1"></use><g><use xlink:href="#b3YXN4yGKV" opacity="1" fill-opacity="0" stroke="#ffffff" stroke-width="1" stroke-opacity="0.97"></use></g></g><g><use xlink:href="#b3wlKrvfVf" opacity="1" fill="#03055d" fill-opacity="1"></use><g><use xlink:href="#b3wlKrvfVf" opacity="1" fill-opacity="0" stroke="#ffffff" stroke-width="1" stroke-opacity="0.97"></use></g></g><g><use xlink:href="#esItk1XcR" opacity="1" fill="#03055d" fill-opacity="1"></use><g><use xlink:href="#esItk1XcR" opacity="1" fill-opacity="0" stroke="#ffffff" stroke-width="1" stroke-opacity="0.97"></use></g></g><g><use xlink:href="#c4seEtUEb" opacity="1" fill="#03055d" fill-opacity="1"></use><g><use xlink:href="#c4seEtUEb" opacity="1" fill-opacity="0" stroke="#ffffff" stroke-width="1" stroke-opacity="0.97"></use></g></g></g><g><g><use xlink:href="#aDYrhBDxU" opacity="1" fill="#03055d" fill-opacity="1"></use><g><use xlink:href="#aDYrhBDxU" opacity="1" fill-opacity="0" stroke="#ffffff" stroke-width="1" stroke-opacity="0.97"></use></g></g><g><use xlink:href="#gZW3IGqG3" opacity="1" fill="#03055d" fill-opacity="1"></use><g><use xlink:href="#gZW3IGqG3" opacity="1" fill-opacity="0" stroke="#ffffff" stroke-width="1" stroke-opacity="0.97"></use></g></g><g><use xlink:href="#gch8velFiA" opacity="1" fill="#03055d" fill-opacity="1"></use><g><use xlink:href="#gch8velFiA" opacity="1" fill-opacity="0" stroke="#ffffff" stroke-width="1" stroke-opacity="0.97"></use></g></g><g><use xlink:href="#blcXGbYbr" opacity="1" fill="#03055d" fill-opacity="1"></use><g><use xlink:href="#blcXGbYbr" opacity="1" fill-opacity="0" stroke="#ffffff" stroke-width="1" stroke-opacity="0.97"></use></g></g></g><g><g><use xlink:href="#d2Ynu96gYZ" opacity="1" fill="#03055d" fill-opacity="1"></use><g><use xlink:href="#d2Ynu96gYZ" opacity="1" fill-opacity="0" stroke="#ffffff" stroke-width="1" stroke-opacity="0.97"></use></g></g><g><use xlink:href="#c7KySwRm3" opacity="1" fill="#03055d" fill-opacity="1"></use><g><use xlink:href="#c7KySwRm3" opacity="1" fill-opacity="0" stroke="#ffffff" stroke-width="1" stroke-opacity="0.97"></use></g></g><g><use xlink:href="#a4RmEIXD22" opacity="1" fill="#03055d" fill-opacity="1"></use><g><use xlink:href="#a4RmEIXD22" opacity="1" fill-opacity="0" stroke="#ffffff" stroke-width="1" stroke-opacity="0.97"></use></g></g><g><use xlink:href="#b3fCifphEH" opacity="1" fill="#03055d" fill-opacity="1"></use><g><use xlink:href="#b3fCifphEH" opacity="1" fill-opacity="0" stroke="#ffffff" stroke-width="1" stroke-opacity="0.97"></use></g></g></g><g><g><use xlink:href="#a33s2JAh3N" opacity="1" fill="#03055d" fill-opacity="1"></use><g><use xlink:href="#a33s2JAh3N" opacity="1" fill-opacity="0" stroke="#ffffff" stroke-width="1" stroke-opacity="0.97"></use></g></g><g><use xlink:href="#c3T37PWm6" opacity="1" fill="#03055d" fill-opacity="1"></use><g><use xlink:href="#c3T37PWm6" opacity="1" fill-opacity="0" stroke="#ffffff" stroke-width="1" stroke-opacity="0.97"></use></g></g><g><use xlink:href="#b1eACkOOCz" opacity="1" fill="#03055d" fill-opacity="1"></use><g><use xlink:href="#b1eACkOOCz" opacity="1" fill-opacity="0" stroke="#ffffff" stroke-width="1" stroke-opacity="0.97"></use></g></g><g><use xlink:href="#cTJMHMAnh" opacity="1" fill="#03055d" fill-opacity="1"></use><g><use xlink:href="#cTJMHMAnh" opacity="1" fill-opacity="0" stroke="#ffffff" stroke-width="1" stroke-opacity="0.97"></use></g></g></g><g><g><use xlink:href="#b5huoxQQS" opacity="1" fill="#03055d" fill-opacity="1"></use><g><use xlink:href="#b5huoxQQS" opacity="1" fill-opacity="0" stroke="#ffffff" stroke-width="1" stroke-opacity="0.97"></use></g></g><g><use xlink:href="#b3tQveoKy" opacity="1" fill="#03055d" fill-opacity="1"></use><g><use xlink:href="#b3tQveoKy" opacity="1" fill-opacity="0" stroke="#ffffff" stroke-width="1" stroke-opacity="0.97"></use></g></g><g><use xlink:href="#byLn5N7vZ" opacity="1" fill="#03055d" fill-opacity="1"></use><g><use xlink:href="#byLn5N7vZ" opacity="1" fill-opacity="0" stroke="#ffffff" stroke-width="1" stroke-opacity="0.97"></use></g></g><g><use xlink:href="#b5tI4xxtJ" opacity="1" fill="#03055d" fill-opacity="1"></use><g><use xlink:href="#b5tI4xxtJ" opacity="1" fill-opacity="0" stroke="#ffffff" stroke-width="1" stroke-opacity="0.97"></use></g></g></g><g><g><use xlink:href="#a63r1NGL6m" opacity="1" fill="#03055d" fill-opacity="1"></use><g><use xlink:href="#a63r1NGL6m" opacity="1" fill-opacity="0" stroke="#ffffff" stroke-width="1" stroke-opacity="0.97"></use></g></g><g><use xlink:href="#a2t8tBsdSX" opacity="1" fill="#03055d" fill-opacity="1"></use><g><use xlink:href="#a2t8tBsdSX" opacity="1" fill-opacity="0" stroke="#ffffff" stroke-width="1" stroke-opacity="0.97"></use></g></g><g><use xlink:href="#eznn653G" opacity="1" fill="#03055d" fill-opacity="1"></use><g><use xlink:href="#eznn653G" opacity="1" fill-opacity="0" stroke="#ffffff" stroke-width="1" stroke-opacity="0.97"></use></g></g><g><use xlink:href="#e5hTZjWO4v" opacity="1" fill="#03055d" fill-opacity="1"></use><g><use xlink:href="#e5hTZjWO4v" opacity="1" fill-opacity="0" stroke="#ffffff" stroke-width="1" stroke-opacity="0.97"></use></g></g></g><g><g><use xlink:href="#b46zh9prIs" opacity="1" fill="#03055d" fill-opacity="1"></use><g><use xlink:href="#b46zh9prIs" opacity="1" fill-opacity="0" stroke="#ffffff" stroke-width="1" stroke-opacity="0.97"></use></g></g><g><use xlink:href="#b4uUkLShs" opacity="1" fill="#03055d" fill-opacity="1"></use><g><use xlink:href="#b4uUkLShs" opacity="1" fill-opacity="0" stroke="#ffffff" stroke-width="1" stroke-opacity="0.97"></use></g></g><g><use xlink:href="#b5iH4LX5tb" opacity="1" fill="#03055d" fill-opacity="1"></use><g><use xlink:href="#b5iH4LX5tb" opacity="1" fill-opacity="0" stroke="#ffffff" stroke-width="1" stroke-opacity="0.97"></use></g></g><g><use xlink:href="#a9EJUmEV6" opacity="1" fill="#03055d" fill-opacity="1"></use><g><use xlink:href="#a9EJUmEV6" opacity="1" fill-opacity="0" stroke="#ffffff" stroke-width="1" stroke-opacity="0.97"></use></g></g></g><g><g><use xlink:href="#b1wGebXjw3" opacity="1" fill="#03055d" fill-opacity="1"></use><g><use xlink:href="#b1wGebXjw3" opacity="1" fill-opacity="0" stroke="#ffffff" stroke-width="1" stroke-opacity="0.97"></use></g></g><g><use xlink:href="#b4UiCwQKC" opacity="1" fill="#03055d" fill-opacity="1"></use><g><use xlink:href="#b4UiCwQKC" opacity="1" fill-opacity="0" stroke="#ffffff" stroke-width="1" stroke-opacity="0.97"></use></g></g><g><use xlink:href="#a1mgjTr3yG" opacity="1" fill="#03055d" fill-opacity="1"></use><g><use xlink:href="#a1mgjTr3yG" opacity="1" fill-opacity="0" stroke="#ffffff" stroke-width="1" stroke-opacity="0.97"></use></g></g><g><use xlink:href="#a613TXnaCy" opacity="1" fill="#03055d" fill-opacity="1"></use><g><use xlink:href="#a613TXnaCy" opacity="1" fill-opacity="0" stroke="#ffffff" stroke-width="1" stroke-opacity="0.97"></use></g></g></g><g><g><use xlink:href="#bBZQMdpyy" opacity="1" fill="#03055d" fill-opacity="1"></use><g><use xlink:href="#bBZQMdpyy" opacity="1" fill-opacity="0" stroke="#ffffff" stroke-width="1" stroke-opacity="0.97"></use></g></g><g><use xlink:href="#a4Pqd41tVR" opacity="1" fill="#03055d" fill-opacity="1"></use><g><use xlink:href="#a4Pqd41tVR" opacity="1" fill-opacity="0" stroke="#ffffff" stroke-width="1" stroke-opacity="0.97"></use></g></g><g><use xlink:href="#bsCWknl5M" opacity="1" fill="#03055d" fill-opacity="1"></use><g><use xlink:href="#bsCWknl5M" opacity="1" fill-opacity="0" stroke="#ffffff" stroke-width="1" stroke-opacity="0.97"></use></g></g><g><use xlink:href="#g1z7VgYsc" opacity="1" fill="#03055d" fill-opacity="1"></use><g><use xlink:href="#g1z7VgYsc" opacity="1" fill-opacity="0" stroke="#ffffff" stroke-width="1" stroke-opacity="0.97"></use></g></g></g><g><g><use xlink:href="#l1FgmaIu30" opacity="1" fill="#03055d" fill-opacity="1"></use><g><use xlink:href="#l1FgmaIu30" opacity="1" fill-opacity="0" stroke="#ffffff" stroke-width="1" stroke-opacity="0.97"></use></g></g><g><use xlink:href="#a8gChOEbEI" opacity="1" fill="#03055d" fill-opacity="1"></use><g><use xlink:href="#a8gChOEbEI" opacity="1" fill-opacity="0" stroke="#ffffff" stroke-width="1" stroke-opacity="0.97"></use></g></g><g><use xlink:href="#b1oXlV5Uqj" opacity="1" fill="#03055d" fill-opacity="1"></use><g><use xlink:href="#b1oXlV5Uqj" opacity="1" fill-opacity="0" stroke="#ffffff" stroke-width="1" stroke-opacity="0.97"></use></g></g><g><use xlink:href="#b2YYqIFGK7" opacity="1" fill="#03055d" fill-opacity="1"></use><g><use xlink:href="#b2YYqIFGK7" opacity="1" fill-opacity="0" stroke="#ffffff" stroke-width="1" stroke-opacity="0.97"></use></g></g></g><g><g><use xlink:href="#a2Vx6VDZkq" opacity="1" fill="#03055d" fill-opacity="1"></use><g><use xlink:href="#a2Vx6VDZkq" opacity="1" fill-opacity="0" stroke="#ffffff" stroke-width="1" stroke-opacity="0.97"></use></g></g><g><use xlink:href="#cXDLYcVUN" opacity="1" fill="#03055d" fill-opacity="1"></use><g><use xlink:href="#cXDLYcVUN" opacity="1" fill-opacity="0" stroke="#ffffff" stroke-width="1" stroke-opacity="0.97"></use></g></g><g><use xlink:href="#c1SGJDG2qw" opacity="1" fill="#03055d" fill-opacity="1"></use><g><use xlink:href="#c1SGJDG2qw" opacity="1" fill-opacity="0" stroke="#ffffff" stroke-width="1" stroke-opacity="0.97"></use></g></g><g><use xlink:href="#a8sGPUShLc" opacity="1" fill="#03055d" fill-opacity="1"></use><g><use xlink:href="#a8sGPUShLc" opacity="1" fill-opacity="0" stroke="#ffffff" stroke-width="1" stroke-opacity="0.97"></use></g></g></g><g><g><use xlink:href="#d32twBNTG8" opacity="1" fill="#03055d" fill-opacity="1"></use><g><use xlink:href="#d32twBNTG8" opacity="1" fill-opacity="0" stroke="#ffffff" stroke-width="1" stroke-opacity="0.97"></use></g></g><g><use xlink:href="#c4W4ZM5U6C" opacity="1" fill="#03055d" fill-opacity="1"></use><g><use xlink:href="#c4W4ZM5U6C" opacity="1" fill-opacity="0" stroke="#ffffff" stroke-width="1" stroke-opacity="0.97"></use></g></g><g><use xlink:href="#f1mzCMnbl9" opacity="1" fill="#03055d" fill-opacity="1"></use><g><use xlink:href="#f1mzCMnbl9" opacity="1" fill-opacity="0" stroke="#ffffff" stroke-width="1" stroke-opacity="0.97"></use></g></g><g><use xlink:href="#aEa7MWpZ" opacity="1" fill="#03055d" fill-opacity="1"></use><g><use xlink:href="#aEa7MWpZ" opacity="1" fill-opacity="0" stroke="#ffffff" stroke-width="1" stroke-opacity="0.97"></use></g></g></g><g><g><use xlink:href="#a1UG8OSyk" opacity="1" fill="#03055d" fill-opacity="1"></use><g><use xlink:href="#a1UG8OSyk" opacity="1" fill-opacity="0" stroke="#ffffff" stroke-width="1" stroke-opacity="0.97"></use></g></g><g><use xlink:href="#gvhuX1td2" opacity="1" fill="#03055d" fill-opacity="1"></use><g><use xlink:href="#gvhuX1td2" opacity="1" fill-opacity="0" stroke="#ffffff" stroke-width="1" stroke-opacity="0.97"></use></g></g><g><use xlink:href="#c2xTlR6iJu" opacity="1" fill="#03055d" fill-opacity="1"></use><g><use xlink:href="#c2xTlR6iJu" opacity="1" fill-opacity="0" stroke="#ffffff" stroke-width="1" stroke-opacity="0.97"></use></g></g><g><use xlink:href="#c1I7m6Trxg" opacity="1" fill="#03055d" fill-opacity="1"></use><g><use xlink:href="#c1I7m6Trxg" opacity="1" fill-opacity="0" stroke="#ffffff" stroke-width="1" stroke-opacity="0.97"></use></g></g></g><g><g><use xlink:href="#b1y5uZLWTS" opacity="1" fill="#03055d" fill-opacity="1"></use><g><use xlink:href="#b1y5uZLWTS" opacity="1" fill-opacity="0" stroke="#ffffff" stroke-width="1" stroke-opacity="0.97"></use></g></g><g><use xlink:href="#a1HtUmBYjY" opacity="1" fill="#03055d" fill-opacity="1"></use><g><use xlink:href="#a1HtUmBYjY" opacity="1" fill-opacity="0" stroke="#ffffff" stroke-width="1" stroke-opacity="0.97"></use></g></g><g><use xlink:href="#al4FDrg4p" opacity="1" fill="#03055d" fill-opacity="1"></use><g><use xlink:href="#al4FDrg4p" opacity="1" fill-opacity="0" stroke="#ffffff" stroke-width="1" stroke-opacity="0.97"></use></g></g><g><use xlink:href="#bAk5CRzpb" opacity="1" fill="#03055d" fill-opacity="1"></use><g><use xlink:href="#bAk5CRzpb" opacity="1" fill-opacity="0" stroke="#ffffff" stroke-width="1" stroke-opacity="0.97"></use></g></g></g><g><g><use xlink:href="#bXjh86FGs" opacity="1" fill="#03055d" fill-opacity="1"></use><g><use xlink:href="#bXjh86FGs" opacity="1" fill-opacity="0" stroke="#ffffff" stroke-width="1" stroke-opacity="0.97"></use></g></g><g><use xlink:href="#ays7WzmPe" opacity="1" fill="#03055d" fill-opacity="1"></use><g><use xlink:href="#ays7WzmPe" opacity="1" fill-opacity="0" stroke="#ffffff" stroke-width="1" stroke-opacity="0.97"></use></g></g><g><use xlink:href="#a113aLDjY" opacity="1" fill="#03055d" fill-opacity="1"></use><g><use xlink:href="#a113aLDjY" opacity="1" fill-opacity="0" stroke="#ffffff" stroke-width="1" stroke-opacity="0.97"></use></g></g><g><use xlink:href="#a3F3x2psG" opacity="1" fill="#03055d" fill-opacity="1"></use><g><use xlink:href="#a3F3x2psG" opacity="1" fill-opacity="0" stroke="#ffffff" stroke-width="1" stroke-opacity="0.97"></use></g></g></g><g><g><use xlink:href="#a1uR0ScuN3" opacity="1" fill="#03055d" fill-opacity="1"></use><g><use xlink:href="#a1uR0ScuN3" opacity="1" fill-opacity="0" stroke="#ffffff" stroke-width="1" stroke-opacity="0.97"></use></g></g><g><use xlink:href="#e4hnvPP371" opacity="1" fill="#03055d" fill-opacity="1"></use><g><use xlink:href="#e4hnvPP371" opacity="1" fill-opacity="0" stroke="#ffffff" stroke-width="1" stroke-opacity="0.97"></use></g></g><g><use xlink:href="#b7A4s7cZP" opacity="1" fill="#03055d" fill-opacity="1"></use><g><use xlink:href="#b7A4s7cZP" opacity="1" fill-opacity="0" stroke="#ffffff" stroke-width="1" stroke-opacity="0.97"></use></g></g><g><use xlink:href="#d46Ympdvg" opacity="1" fill="#03055d" fill-opacity="1"></use><g><use xlink:href="#d46Ympdvg" opacity="1" fill-opacity="0" stroke="#ffffff" stroke-width="1" stroke-opacity="0.97"></use></g></g></g><g><g><use xlink:href="#e8bRA2BNs" opacity="1" fill="#03055d" fill-opacity="1"></use><g><use xlink:href="#e8bRA2BNs" opacity="1" fill-opacity="0" stroke="#ffffff" stroke-width="1" stroke-opacity="0.97"></use></g></g><g><use xlink:href="#a4CpkmTGsw" opacity="1" fill="#03055d" fill-opacity="1"></use><g><use xlink:href="#a4CpkmTGsw" opacity="1" fill-opacity="0" stroke="#ffffff" stroke-width="1" stroke-opacity="0.97"></use></g></g><g><use xlink:href="#a2nwpfmxN6" opacity="1" fill="#03055d" fill-opacity="1"></use><g><use xlink:href="#a2nwpfmxN6" opacity="1" fill-opacity="0" stroke="#ffffff" stroke-width="1" stroke-opacity="0.97"></use></g></g><g><use xlink:href="#c1KYttTcKc" opacity="1" fill="#03055d" fill-opacity="1"></use><g><use xlink:href="#c1KYttTcKc" opacity="1" fill-opacity="0" stroke="#ffffff" stroke-width="1" stroke-opacity="0.97"></use></g></g></g><g><g><use xlink:href="#b17r9eEPKl" opacity="1" fill="#03055d" fill-opacity="1"></use><g><use xlink:href="#b17r9eEPKl" opacity="1" fill-opacity="0" stroke="#ffffff" stroke-width="1" stroke-opacity="0.97"></use></g></g><g><use xlink:href="#d4TbMqlACW" opacity="1" fill="#03055d" fill-opacity="1"></use><g><use xlink:href="#d4TbMqlACW" opacity="1" fill-opacity="0" stroke="#ffffff" stroke-width="1" stroke-opacity="0.97"></use></g></g><g><use xlink:href="#axHLZVO4L" opacity="1" fill="#03055d" fill-opacity="1"></use><g><use xlink:href="#axHLZVO4L" opacity="1" fill-opacity="0" stroke="#ffffff" stroke-width="1" stroke-opacity="0.97"></use></g></g><g><use xlink:href="#as9JxSSzN" opacity="1" fill="#03055d" fill-opacity="1"></use><g><use xlink:href="#as9JxSSzN" opacity="1" fill-opacity="0" stroke="#ffffff" stroke-width="1" stroke-opacity="0.97"></use></g></g></g><g><g><use xlink:href="#c2c40E9g3W" opacity="1" fill="#03055d" fill-opacity="1"></use><g><use xlink:href="#c2c40E9g3W" opacity="1" fill-opacity="0" stroke="#ffffff" stroke-width="1" stroke-opacity="0.97"></use></g></g><g><use xlink:href="#aCjNB4VtR" opacity="1" fill="#03055d" fill-opacity="1"></use><g><use xlink:href="#aCjNB4VtR" opacity="1" fill-opacity="0" stroke="#ffffff" stroke-width="1" stroke-opacity="0.97"></use></g></g><g><use xlink:href="#a1x2HEItEF" opacity="1" fill="#03055d" fill-opacity="1"></use><g><use xlink:href="#a1x2HEItEF" opacity="1" fill-opacity="0" stroke="#ffffff" stroke-width="1" stroke-opacity="0.97"></use></g></g><g><use xlink:href="#c6aRoqUJ7N" opacity="1" fill="#03055d" fill-opacity="1"></use><g><use xlink:href="#c6aRoqUJ7N" opacity="1" fill-opacity="0" stroke="#ffffff" stroke-width="1" stroke-opacity="0.97"></use></g></g></g><g><g><use xlink:href="#ip8BBLhaO" opacity="1" fill="#03055d" fill-opacity="1"></use><g><use xlink:href="#ip8BBLhaO" opacity="1" fill-opacity="0" stroke="#ffffff" stroke-width="1" stroke-opacity="0.97"></use></g></g><g><use xlink:href="#h1HvsOGfuB" opacity="1" fill="#03055d" fill-opacity="1"></use><g><use xlink:href="#h1HvsOGfuB" opacity="1" fill-opacity="0" stroke="#ffffff" stroke-width="1" stroke-opacity="0.97"></use></g></g><g><use xlink:href="#c5yzJVEbal" opacity="1" fill="#03055d" fill-opacity="1"></use><g><use xlink:href="#c5yzJVEbal" opacity="1" fill-opacity="0" stroke="#ffffff" stroke-width="1" stroke-opacity="0.97"></use></g></g><g><use xlink:href="#c34UUWRmNa" opacity="1" fill="#03055d" fill-opacity="1"></use><g><use xlink:href="#c34UUWRmNa" opacity="1" fill-opacity="0" stroke="#ffffff" stroke-width="1" stroke-opacity="0.97"></use></g></g></g><g><g><use xlink:href="#c1Ij0CQVkd" opacity="1" fill="#03055d" fill-opacity="1"></use><g><use xlink:href="#c1Ij0CQVkd" opacity="1" fill-opacity="0" stroke="#ffffff" stroke-width="1" stroke-opacity="0.97"></use></g></g><g><use xlink:href="#am6zULRlB" opacity="1" fill="#03055d" fill-opacity="1"></use><g><use xlink:href="#am6zULRlB" opacity="1" fill-opacity="0" stroke="#ffffff" stroke-width="1" stroke-opacity="0.97"></use></g></g><g><use xlink:href="#b31YqVI4F8" opacity="1" fill="#03055d" fill-opacity="1"></use><g><use xlink:href="#b31YqVI4F8" opacity="1" fill-opacity="0" stroke="#ffffff" stroke-width="1" stroke-opacity="0.97"></use></g></g><g><use xlink:href="#d14jzXvRRY" opacity="1" fill="#03055d" fill-opacity="1"></use><g><use xlink:href="#d14jzXvRRY" opacity="1" fill-opacity="0" stroke="#ffffff" stroke-width="1" stroke-opacity="0.97"></use></g></g></g><g><g><use xlink:href="#f1zz0bBUk7" opacity="1" fill="#03055d" fill-opacity="1"></use><g><use xlink:href="#f1zz0bBUk7" opacity="1" fill-opacity="0" stroke="#ffffff" stroke-width="1" stroke-opacity="0.97"></use></g></g><g><use xlink:href="#e3E92heehc" opacity="1" fill="#03055d" fill-opacity="1"></use><g><use xlink:href="#e3E92heehc" opacity="1" fill-opacity="0" stroke="#ffffff" stroke-width="1" stroke-opacity="0.97"></use></g></g><g><use xlink:href="#alb1dn592" opacity="1" fill="#03055d" fill-opacity="1"></use><g><use xlink:href="#alb1dn592" opacity="1" fill-opacity="0" stroke="#ffffff" stroke-width="1" stroke-opacity="0.97"></use></g></g><g><use xlink:href="#gMG3lJ8Gw" opacity="1" fill="#03055d" fill-opacity="1"></use><g><use xlink:href="#gMG3lJ8Gw" opacity="1" fill-opacity="0" stroke="#ffffff" stroke-width="1" stroke-opacity="0.97"></use></g></g></g><g><g><use xlink:href="#a1c0P0bAN0" opacity="1" fill="#03055d" fill-opacity="1"></use><g><use xlink:href="#a1c0P0bAN0" opacity="1" fill-opacity="0" stroke="#ffffff" stroke-width="1" stroke-opacity="0.97"></use></g></g><g><use xlink:href="#d2d2v8AkTt" opacity="1" fill="#03055d" fill-opacity="1"></use><g><use xlink:href="#d2d2v8AkTt" opacity="1" fill-opacity="0" stroke="#ffffff" stroke-width="1" stroke-opacity="0.97"></use></g></g><g><use xlink:href="#b1NjT62aty" opacity="1" fill="#03055d" fill-opacity="1"></use><g><use xlink:href="#b1NjT62aty" opacity="1" fill-opacity="0" stroke="#ffffff" stroke-width="1" stroke-opacity="0.97"></use></g></g><g><use xlink:href="#eXmMhfbGs" opacity="1" fill="#03055d" fill-opacity="1"></use><g><use xlink:href="#eXmMhfbGs" opacity="1" fill-opacity="0" stroke="#ffffff" stroke-width="1" stroke-opacity="0.97"></use></g></g></g><g><g><use xlink:href="#bMPJRYu4H" opacity="1" fill="#03055d" fill-opacity="1"></use><g><use xlink:href="#bMPJRYu4H" opacity="1" fill-opacity="0" stroke="#ffffff" stroke-width="1" stroke-opacity="0.97"></use></g></g><g><use xlink:href="#aiwU7sdg1" opacity="1" fill="#03055d" fill-opacity="1"></use><g><use xlink:href="#aiwU7sdg1" opacity="1" fill-opacity="0" stroke="#ffffff" stroke-width="1" stroke-opacity="0.97"></use></g></g><g><use xlink:href="#btPSsZOmf" opacity="1" fill="#03055d" fill-opacity="1"></use><g><use xlink:href="#btPSsZOmf" opacity="1" fill-opacity="0" stroke="#ffffff" stroke-width="1" stroke-opacity="0.97"></use></g></g><g><use xlink:href="#b1feQhKix" opacity="1" fill="#03055d" fill-opacity="1"></use><g><use xlink:href="#b1feQhKix" opacity="1" fill-opacity="0" stroke="#ffffff" stroke-width="1" stroke-opacity="0.97"></use></g></g></g><g><g><use xlink:href="#bpOQs8A8U" opacity="1" fill="#03055d" fill-opacity="1"></use><g><use xlink:href="#bpOQs8A8U" opacity="1" fill-opacity="0" stroke="#ffffff" stroke-width="1" stroke-opacity="0.97"></use></g></g><g><use xlink:href="#dCw1koLkd" opacity="1" fill="#03055d" fill-opacity="1"></use><g><use xlink:href="#dCw1koLkd" opacity="1" fill-opacity="0" stroke="#ffffff" stroke-width="1" stroke-opacity="0.97"></use></g></g><g><use xlink:href="#c1qhSh5PrV" opacity="1" fill="#03055d" fill-opacity="1"></use><g><use xlink:href="#c1qhSh5PrV" opacity="1" fill-opacity="0" stroke="#ffffff" stroke-width="1" stroke-opacity="0.97"></use></g></g><g><use xlink:href="#dgwEjsawS" opacity="1" fill="#03055d" fill-opacity="1"></use><g><use xlink:href="#dgwEjsawS" opacity="1" fill-opacity="0" stroke="#ffffff" stroke-width="1" stroke-opacity="0.97"></use></g></g></g><g><g><use xlink:href="#a6k32iXYG" opacity="1" fill="#03055d" fill-opacity="1"></use><g><use xlink:href="#a6k32iXYG" opacity="1" fill-opacity="0" stroke="#ffffff" stroke-width="1" stroke-opacity="0.97"></use></g></g><g><use xlink:href="#b18H0JMGs" opacity="1" fill="#03055d" fill-opacity="1"></use><g><use xlink:href="#b18H0JMGs" opacity="1" fill-opacity="0" stroke="#ffffff" stroke-width="1" stroke-opacity="0.97"></use></g></g><g><use xlink:href="#c3KtLFmuyE" opacity="1" fill="#03055d" fill-opacity="1"></use><g><use xlink:href="#c3KtLFmuyE" opacity="1" fill-opacity="0" stroke="#ffffff" stroke-width="1" stroke-opacity="0.97"></use></g></g><g><use xlink:href="#a303tw2qER" opacity="1" fill="#03055d" fill-opacity="1"></use><g><use xlink:href="#a303tw2qER" opacity="1" fill-opacity="0" stroke="#ffffff" stroke-width="1" stroke-opacity="0.97"></use></g></g></g><g><g><use xlink:href="#aiK49y16K" opacity="1" fill="#03055d" fill-opacity="1"></use><g><use xlink:href="#aiK49y16K" opacity="1" fill-opacity="0" stroke="#ffffff" stroke-width="1" stroke-opacity="0.97"></use></g></g><g><use xlink:href="#c1o3ZFhmtO" opacity="1" fill="#03055d" fill-opacity="1"></use><g><use xlink:href="#c1o3ZFhmtO" opacity="1" fill-opacity="0" stroke="#ffffff" stroke-width="1" stroke-opacity="0.97"></use></g></g><g><use xlink:href="#a13NFMP16" opacity="1" fill="#03055d" fill-opacity="1"></use><g><use xlink:href="#a13NFMP16" opacity="1" fill-opacity="0" stroke="#ffffff" stroke-width="1" stroke-opacity="0.97"></use></g></g><g><use xlink:href="#aTKtZ5vjP" opacity="1" fill="#03055d" fill-opacity="1"></use><g><use xlink:href="#aTKtZ5vjP" opacity="1" fill-opacity="0" stroke="#ffffff" stroke-width="1" stroke-opacity="0.97"></use></g></g></g></g></g></g></svg>